<mxfile host="app.diagrams.net" modified="2020-12-16T08:21:57.371Z" agent="5.0 (Windows NT 10.0; Win64; x64) AppleWebKit/537.36 (KHTML, like Gecko) Chrome/86.0.4240.198 Safari/537.36" etag="-6bfrUqe6zlvufkr2UFN" version="14.0.1" type="github">
  <diagram id="piHKIUo1fMsEEpTTjODf" name="Page-1">
    <mxGraphModel dx="6014" dy="-433" grid="1" gridSize="10" guides="1" tooltips="1" connect="1" arrows="1" fold="1" page="1" pageScale="1" pageWidth="827" pageHeight="1169" math="0" shadow="0">
      <root>
        <mxCell id="0" />
        <mxCell id="1" parent="0" />
        <mxCell id="9GpVhyX3XaPiWzsppeSM-713" value="制定项目策划计划" style="strokeColor=#BAC8D3;fillColor=#5d7f99;fontSize=10;strokeWidth=2;horizontal=0;fontFamily=Helvetica;labelBackgroundColor=none;fontColor=#FFFFFF;" vertex="1" parent="1">
          <mxGeometry x="-1950" y="8520" width="40" height="170" as="geometry" />
        </mxCell>
        <mxCell id="9GpVhyX3XaPiWzsppeSM-711" value="标识项目工作与需求之间的不一致性" style="strokeColor=#BAC8D3;fillColor=#5d7f99;fontSize=10;strokeWidth=2;horizontal=0;fontFamily=Helvetica;labelBackgroundColor=none;fontColor=#FFFFFF;align=center;" vertex="1" parent="1">
          <mxGeometry x="-1950" y="8350" width="40" height="170" as="geometry" />
        </mxCell>
        <mxCell id="9GpVhyX3XaPiWzsppeSM-256" value="需求理解与承诺" style="strokeColor=#BAC8D3;fillColor=#5d7f99;fontSize=10;strokeWidth=2;horizontal=0;fontFamily=Helvetica;labelBackgroundColor=none;fontColor=#FFFFFF;" vertex="1" parent="1">
          <mxGeometry x="-1950" y="8010" width="40" height="170" as="geometry" />
        </mxCell>
        <mxCell id="9GpVhyX3XaPiWzsppeSM-723" value="项目初始估计" style="strokeColor=#BAC8D3;fillColor=#5d7f99;fontSize=10;strokeWidth=2;horizontal=0;fontFamily=Helvetica;labelBackgroundColor=none;fontColor=#FFFFFF;align=center;" vertex="1" parent="1">
          <mxGeometry x="-1950" y="8690" width="40" height="170" as="geometry" />
        </mxCell>
        <mxCell id="9GpVhyX3XaPiWzsppeSM-727" value="初始策划" style="strokeColor=#BAC8D3;fillColor=#5d7f99;fontSize=10;strokeWidth=2;horizontal=0;fontFamily=Helvetica;labelBackgroundColor=none;fontColor=#FFFFFF;" vertex="1" parent="1">
          <mxGeometry x="-1950" y="8860" width="40" height="170" as="geometry" />
        </mxCell>
        <mxCell id="9GpVhyX3XaPiWzsppeSM-731" value="获得对计划的承诺" style="strokeColor=#BAC8D3;fillColor=#5d7f99;fontSize=10;strokeWidth=2;horizontal=0;fontFamily=Helvetica;labelBackgroundColor=none;fontColor=#FFFFFF;align=center;" vertex="1" parent="1">
          <mxGeometry x="-1950" y="9030" width="40" height="170" as="geometry" />
        </mxCell>
        <mxCell id="9GpVhyX3XaPiWzsppeSM-735" value="项目详细估计" style="strokeColor=#BAC8D3;fillColor=#5d7f99;fontSize=10;strokeWidth=2;horizontal=0;fontFamily=Helvetica;labelBackgroundColor=none;fontColor=#FFFFFF;" vertex="1" parent="1">
          <mxGeometry x="-1950" y="9200" width="40" height="170" as="geometry" />
        </mxCell>
        <mxCell id="9GpVhyX3XaPiWzsppeSM-739" value="项目详细策划" style="strokeColor=#BAC8D3;fillColor=#5d7f99;fontSize=10;strokeWidth=2;horizontal=0;fontFamily=Helvetica;labelBackgroundColor=none;fontColor=#FFFFFF;align=center;" vertex="1" parent="1">
          <mxGeometry x="-1950" y="9370" width="40" height="170" as="geometry" />
        </mxCell>
        <mxCell id="9GpVhyX3XaPiWzsppeSM-743" value="计划变更控制" style="strokeColor=#BAC8D3;fillColor=#5d7f99;fontSize=10;strokeWidth=2;horizontal=0;fontFamily=Helvetica;labelBackgroundColor=none;fontColor=#FFFFFF;" vertex="1" parent="1">
          <mxGeometry x="-1950" y="9540" width="40" height="170" as="geometry" />
        </mxCell>
        <mxCell id="9GpVhyX3XaPiWzsppeSM-745" value="制定需求管理计划" style="strokeColor=#BAC8D3;fillColor=#5d7f99;fontSize=10;strokeWidth=2;horizontal=0;fontFamily=Helvetica;labelBackgroundColor=none;fontColor=#FFFFFF;" vertex="1" parent="1">
          <mxGeometry x="-1950" y="7840" width="40" height="170" as="geometry" />
        </mxCell>
        <mxCell id="9GpVhyX3XaPiWzsppeSM-746" value="需求理解与承诺" style="strokeColor=#BAC8D3;fillColor=#5d7f99;fontSize=10;strokeWidth=2;horizontal=0;fontFamily=Helvetica;labelBackgroundColor=none;fontColor=#FFFFFF;" vertex="1" parent="1">
          <mxGeometry x="-1950" y="8010" width="40" height="170" as="geometry" />
        </mxCell>
        <mxCell id="9GpVhyX3XaPiWzsppeSM-747" value="维护需求的双向可追溯性" style="strokeColor=#BAC8D3;fillColor=#5d7f99;fontSize=10;strokeWidth=2;horizontal=0;fontFamily=Helvetica;labelBackgroundColor=none;fontColor=#FFFFFF;" vertex="1" parent="1">
          <mxGeometry x="-1950" y="8180" width="40" height="170" as="geometry" />
        </mxCell>
        <mxCell id="9GpVhyX3XaPiWzsppeSM-748" value="标识项目工作与需求之间的不一致性" style="strokeColor=#BAC8D3;fillColor=#5d7f99;fontSize=10;strokeWidth=2;horizontal=0;fontFamily=Helvetica;labelBackgroundColor=none;fontColor=#FFFFFF;align=center;" vertex="1" parent="1">
          <mxGeometry x="-1950" y="8350" width="40" height="170" as="geometry" />
        </mxCell>
        <mxCell id="9GpVhyX3XaPiWzsppeSM-749" value="制定项目策划计划" style="strokeColor=#BAC8D3;fillColor=#5d7f99;fontSize=10;strokeWidth=2;horizontal=0;fontFamily=Helvetica;labelBackgroundColor=none;fontColor=#FFFFFF;" vertex="1" parent="1">
          <mxGeometry x="-1950" y="8520" width="40" height="170" as="geometry" />
        </mxCell>
        <mxCell id="9GpVhyX3XaPiWzsppeSM-265" value="" style="strokeColor=#FFFFFF;fillColor=#BAC8D3;fontSize=18;strokeWidth=2;fontFamily=Helvetica;html=1;opacity=90;" vertex="1" parent="1">
          <mxGeometry x="-1910" y="8010" width="646.67" height="170" as="geometry" />
        </mxCell>
        <mxCell id="9GpVhyX3XaPiWzsppeSM-29" value="需求管理过程" style="rounded=1;whiteSpace=wrap;html=1;verticalAlign=top;" vertex="1" parent="1">
          <mxGeometry x="-620" y="4700" width="240" height="550" as="geometry" />
        </mxCell>
        <mxCell id="9GpVhyX3XaPiWzsppeSM-15" value="" style="rounded=1;whiteSpace=wrap;html=1;" vertex="1" parent="1">
          <mxGeometry x="-750" y="3740" width="200" height="145" as="geometry" />
        </mxCell>
        <mxCell id="9GpVhyX3XaPiWzsppeSM-14" value="" style="rounded=1;whiteSpace=wrap;html=1;" vertex="1" parent="1">
          <mxGeometry x="-750" y="3905" width="200" height="300" as="geometry" />
        </mxCell>
        <mxCell id="iFp0Jspzjo4-1ObcR2li-18" style="edgeStyle=none;rounded=0;orthogonalLoop=1;jettySize=auto;html=1;" parent="1" source="iFp0Jspzjo4-1ObcR2li-5" target="iFp0Jspzjo4-1ObcR2li-16" edge="1">
          <mxGeometry relative="1" as="geometry" />
        </mxCell>
        <mxCell id="iFp0Jspzjo4-1ObcR2li-5" value="&lt;font color=&quot;#ffffff&quot; style=&quot;font-size: 17px&quot;&gt;配置管理计划&lt;/font&gt;" style="rounded=1;whiteSpace=wrap;html=1;gradientColor=#277116;fillColor=#60A337;fontSize=17;strokeColor=none;fontStyle=1" parent="1" vertex="1">
          <mxGeometry x="590" y="4035" width="160" height="40" as="geometry" />
        </mxCell>
        <mxCell id="iFp0Jspzjo4-1ObcR2li-17" style="edgeStyle=none;rounded=0;orthogonalLoop=1;jettySize=auto;html=1;" parent="1" source="iFp0Jspzjo4-1ObcR2li-7" target="iFp0Jspzjo4-1ObcR2li-16" edge="1">
          <mxGeometry relative="1" as="geometry" />
        </mxCell>
        <mxCell id="iFp0Jspzjo4-1ObcR2li-7" value="&lt;font color=&quot;#ffffff&quot; style=&quot;font-size: 17px&quot;&gt;质量保证计划&lt;/font&gt;" style="rounded=1;whiteSpace=wrap;html=1;gradientColor=#277116;fillColor=#60A337;fontSize=17;strokeColor=none;fontStyle=1" parent="1" vertex="1">
          <mxGeometry x="590" y="3770" width="160" height="40" as="geometry" />
        </mxCell>
        <mxCell id="iFp0Jspzjo4-1ObcR2li-10" value="" style="rounded=0;orthogonalLoop=1;jettySize=auto;html=1;" parent="1" source="iFp0Jspzjo4-1ObcR2li-8" target="iFp0Jspzjo4-1ObcR2li-7" edge="1">
          <mxGeometry relative="1" as="geometry" />
        </mxCell>
        <mxCell id="iFp0Jspzjo4-1ObcR2li-8" value="&lt;font color=&quot;#ffffff&quot; style=&quot;font-size: 17px&quot;&gt;确立生存周期模型、工作产品和进度安排&lt;/font&gt;" style="rounded=1;whiteSpace=wrap;html=1;gradientColor=#277116;fillColor=#60A337;fontSize=17;strokeColor=none;fontStyle=1" parent="1" vertex="1">
          <mxGeometry x="561.5" y="3875" width="200" height="55" as="geometry" />
        </mxCell>
        <mxCell id="iFp0Jspzjo4-1ObcR2li-13" style="rounded=0;orthogonalLoop=1;jettySize=auto;html=1;" parent="1" source="iFp0Jspzjo4-1ObcR2li-11" target="iFp0Jspzjo4-1ObcR2li-7" edge="1">
          <mxGeometry relative="1" as="geometry" />
        </mxCell>
        <mxCell id="iFp0Jspzjo4-1ObcR2li-22" style="edgeStyle=none;rounded=0;orthogonalLoop=1;jettySize=auto;html=1;" parent="1" source="iFp0Jspzjo4-1ObcR2li-11" target="iFp0Jspzjo4-1ObcR2li-16" edge="1">
          <mxGeometry relative="1" as="geometry" />
        </mxCell>
        <mxCell id="9GpVhyX3XaPiWzsppeSM-2" style="rounded=0;orthogonalLoop=1;jettySize=auto;html=1;" edge="1" parent="1" source="iFp0Jspzjo4-1ObcR2li-11" target="9GpVhyX3XaPiWzsppeSM-1">
          <mxGeometry relative="1" as="geometry" />
        </mxCell>
        <mxCell id="9GpVhyX3XaPiWzsppeSM-3" style="edgeStyle=none;rounded=0;orthogonalLoop=1;jettySize=auto;html=1;" edge="1" parent="1" source="iFp0Jspzjo4-1ObcR2li-11" target="9GpVhyX3XaPiWzsppeSM-4">
          <mxGeometry relative="1" as="geometry">
            <mxPoint x="240" y="3510" as="targetPoint" />
          </mxGeometry>
        </mxCell>
        <mxCell id="9GpVhyX3XaPiWzsppeSM-31" style="edgeStyle=none;rounded=0;orthogonalLoop=1;jettySize=auto;html=1;" edge="1" parent="1" source="iFp0Jspzjo4-1ObcR2li-11" target="9GpVhyX3XaPiWzsppeSM-30">
          <mxGeometry relative="1" as="geometry" />
        </mxCell>
        <mxCell id="9GpVhyX3XaPiWzsppeSM-230" style="edgeStyle=none;rounded=0;orthogonalLoop=1;jettySize=auto;html=1;" edge="1" parent="1" source="iFp0Jspzjo4-1ObcR2li-11" target="9GpVhyX3XaPiWzsppeSM-228">
          <mxGeometry relative="1" as="geometry" />
        </mxCell>
        <mxCell id="9GpVhyX3XaPiWzsppeSM-243" style="edgeStyle=none;rounded=0;orthogonalLoop=1;jettySize=auto;html=1;" edge="1" parent="1" source="iFp0Jspzjo4-1ObcR2li-11" target="9GpVhyX3XaPiWzsppeSM-241">
          <mxGeometry relative="1" as="geometry" />
        </mxCell>
        <mxCell id="iFp0Jspzjo4-1ObcR2li-11" value="&lt;font color=&quot;#ffffff&quot; style=&quot;font-size: 17px&quot;&gt;软件研制任务书及通知下达&lt;/font&gt;" style="rounded=1;whiteSpace=wrap;html=1;gradientColor=#277116;fillColor=#60A337;fontSize=17;strokeColor=none;fontStyle=1" parent="1" vertex="1">
          <mxGeometry x="-100" y="3560" width="210" height="40" as="geometry" />
        </mxCell>
        <mxCell id="iFp0Jspzjo4-1ObcR2li-15" value="&lt;font color=&quot;#277116&quot;&gt;项目估计&lt;/font&gt;" style="rounded=1;whiteSpace=wrap;html=1;fontSize=17;fontStyle=1;strokeWidth=5;dashed=1;strokeColor=#277116;" parent="1" vertex="1">
          <mxGeometry x="706.5" y="4185" width="160" height="40" as="geometry" />
        </mxCell>
        <mxCell id="iFp0Jspzjo4-1ObcR2li-16" value="&lt;font color=&quot;#ffffff&quot;&gt;测量与分析计划&lt;/font&gt;" style="rounded=1;whiteSpace=wrap;html=1;gradientColor=#277116;fillColor=#60A337;fontSize=17;strokeColor=none;fontStyle=1" parent="1" vertex="1">
          <mxGeometry x="926.5" y="3780" width="160" height="40" as="geometry" />
        </mxCell>
        <mxCell id="9GpVhyX3XaPiWzsppeSM-17" style="edgeStyle=none;rounded=0;orthogonalLoop=1;jettySize=auto;html=1;" edge="1" parent="1" source="9GpVhyX3XaPiWzsppeSM-1" target="9GpVhyX3XaPiWzsppeSM-16">
          <mxGeometry relative="1" as="geometry" />
        </mxCell>
        <mxCell id="9GpVhyX3XaPiWzsppeSM-1" value="&lt;font color=&quot;#ffffff&quot; style=&quot;font-size: 17px&quot;&gt;需求管理计划&lt;/font&gt;" style="rounded=1;whiteSpace=wrap;html=1;gradientColor=#277116;fillColor=#60A337;fontSize=17;strokeColor=none;fontStyle=1" vertex="1" parent="1">
          <mxGeometry x="-730" y="3755" width="160" height="40" as="geometry" />
        </mxCell>
        <mxCell id="9GpVhyX3XaPiWzsppeSM-4" value="明确项目责任单位、项目负责人、项目质量保证组、项目配置控制委员会、需求提供者和其他利益相关方，说明任务来源、任务质量目标和要求、组织和技术接口关系等" style="ellipse;whiteSpace=wrap;html=1;" vertex="1" parent="1">
          <mxGeometry x="-500" y="3320" width="360" height="120" as="geometry" />
        </mxCell>
        <mxCell id="9GpVhyX3XaPiWzsppeSM-13" style="edgeStyle=none;rounded=0;orthogonalLoop=1;jettySize=auto;html=1;" edge="1" parent="1" source="9GpVhyX3XaPiWzsppeSM-7" target="9GpVhyX3XaPiWzsppeSM-8">
          <mxGeometry relative="1" as="geometry" />
        </mxCell>
        <mxCell id="9GpVhyX3XaPiWzsppeSM-7" value="&lt;font color=&quot;#ffffff&quot; style=&quot;font-size: 17px&quot;&gt;需求理解与承诺&lt;/font&gt;" style="rounded=1;whiteSpace=wrap;html=1;gradientColor=#277116;fillColor=#60A337;fontSize=17;strokeColor=none;fontStyle=1" vertex="1" parent="1">
          <mxGeometry x="-730" y="3825" width="160" height="40" as="geometry" />
        </mxCell>
        <mxCell id="9GpVhyX3XaPiWzsppeSM-20" style="edgeStyle=none;rounded=0;orthogonalLoop=1;jettySize=auto;html=1;" edge="1" parent="1" source="9GpVhyX3XaPiWzsppeSM-8" target="9GpVhyX3XaPiWzsppeSM-16">
          <mxGeometry relative="1" as="geometry" />
        </mxCell>
        <mxCell id="9GpVhyX3XaPiWzsppeSM-8" value="&lt;font color=&quot;#ffffff&quot; style=&quot;font-size: 17px&quot;&gt;达成一致的需求集&lt;/font&gt;" style="rounded=1;whiteSpace=wrap;html=1;gradientColor=#277116;fillColor=#60A337;fontSize=17;strokeColor=none;fontStyle=1" vertex="1" parent="1">
          <mxGeometry x="-730" y="3915" width="160" height="40" as="geometry" />
        </mxCell>
        <mxCell id="9GpVhyX3XaPiWzsppeSM-21" style="edgeStyle=none;rounded=0;orthogonalLoop=1;jettySize=auto;html=1;" edge="1" parent="1" source="9GpVhyX3XaPiWzsppeSM-9" target="9GpVhyX3XaPiWzsppeSM-16">
          <mxGeometry relative="1" as="geometry" />
        </mxCell>
        <mxCell id="9GpVhyX3XaPiWzsppeSM-9" value="&lt;font color=&quot;#ffffff&quot; style=&quot;font-size: 17px&quot;&gt;需求更改要求&lt;/font&gt;" style="rounded=1;whiteSpace=wrap;html=1;gradientColor=#277116;fillColor=#60A337;fontSize=17;strokeColor=none;fontStyle=1" vertex="1" parent="1">
          <mxGeometry x="-730" y="3985" width="160" height="40" as="geometry" />
        </mxCell>
        <mxCell id="9GpVhyX3XaPiWzsppeSM-22" style="edgeStyle=none;rounded=0;orthogonalLoop=1;jettySize=auto;html=1;" edge="1" parent="1" source="9GpVhyX3XaPiWzsppeSM-10" target="9GpVhyX3XaPiWzsppeSM-16">
          <mxGeometry relative="1" as="geometry" />
        </mxCell>
        <mxCell id="9GpVhyX3XaPiWzsppeSM-10" value="&lt;font color=&quot;#ffffff&quot; style=&quot;font-size: 17px&quot;&gt;需求状态跟踪表&lt;/font&gt;" style="rounded=1;whiteSpace=wrap;html=1;gradientColor=#277116;fillColor=#60A337;fontSize=17;strokeColor=none;fontStyle=1" vertex="1" parent="1">
          <mxGeometry x="-730" y="4145" width="160" height="40" as="geometry" />
        </mxCell>
        <mxCell id="9GpVhyX3XaPiWzsppeSM-23" style="edgeStyle=none;rounded=0;orthogonalLoop=1;jettySize=auto;html=1;" edge="1" parent="1" source="9GpVhyX3XaPiWzsppeSM-12" target="9GpVhyX3XaPiWzsppeSM-16">
          <mxGeometry relative="1" as="geometry" />
        </mxCell>
        <mxCell id="9GpVhyX3XaPiWzsppeSM-12" value="&lt;font color=&quot;#ffffff&quot; style=&quot;font-size: 17px&quot;&gt;需求跟踪矩阵&lt;/font&gt;" style="rounded=1;whiteSpace=wrap;html=1;gradientColor=#277116;fillColor=#60A337;fontSize=17;strokeColor=none;fontStyle=1" vertex="1" parent="1">
          <mxGeometry x="-730" y="4065" width="160" height="40" as="geometry" />
        </mxCell>
        <mxCell id="9GpVhyX3XaPiWzsppeSM-16" value="&lt;font color=&quot;#ffffff&quot; style=&quot;font-size: 17px&quot;&gt;管理需求更改&lt;/font&gt;" style="rounded=1;whiteSpace=wrap;html=1;gradientColor=#277116;fillColor=#60A337;fontSize=17;strokeColor=none;fontStyle=1" vertex="1" parent="1">
          <mxGeometry x="-1040" y="3845" width="160" height="40" as="geometry" />
        </mxCell>
        <mxCell id="9GpVhyX3XaPiWzsppeSM-24" value="&lt;font color=&quot;#ffffff&quot;&gt;制定需求管理计划&lt;/font&gt;" style="rounded=1;whiteSpace=wrap;html=1;gradientColor=#277116;fillColor=#60A337;fontSize=17;strokeColor=none;fontStyle=1" vertex="1" parent="1">
          <mxGeometry x="-580" y="4750" width="160" height="40" as="geometry" />
        </mxCell>
        <mxCell id="9GpVhyX3XaPiWzsppeSM-25" value="&lt;font color=&quot;#ffffff&quot;&gt;需求理解与承诺&lt;/font&gt;" style="rounded=1;whiteSpace=wrap;html=1;gradientColor=#277116;fillColor=#60A337;fontSize=17;strokeColor=none;fontStyle=1" vertex="1" parent="1">
          <mxGeometry x="-580" y="4850" width="160" height="40" as="geometry" />
        </mxCell>
        <mxCell id="9GpVhyX3XaPiWzsppeSM-26" value="&lt;font color=&quot;#ffffff&quot;&gt;管理需求更改&lt;/font&gt;" style="rounded=1;whiteSpace=wrap;html=1;gradientColor=#277116;fillColor=#60A337;fontSize=17;strokeColor=none;fontStyle=1" vertex="1" parent="1">
          <mxGeometry x="-580" y="4960" width="160" height="40" as="geometry" />
        </mxCell>
        <mxCell id="9GpVhyX3XaPiWzsppeSM-27" value="&lt;font color=&quot;#ffffff&quot;&gt;维护需求的双向可追溯性&lt;/font&gt;" style="rounded=1;whiteSpace=wrap;html=1;gradientColor=#277116;fillColor=#60A337;fontSize=17;strokeColor=none;fontStyle=1" vertex="1" parent="1">
          <mxGeometry x="-580" y="5060" width="160" height="40" as="geometry" />
        </mxCell>
        <mxCell id="9GpVhyX3XaPiWzsppeSM-28" value="&lt;font color=&quot;#ffffff&quot;&gt;标识项目工作与需求之间的不一致性&lt;/font&gt;" style="rounded=1;whiteSpace=wrap;html=1;gradientColor=#277116;fillColor=#60A337;fontSize=17;strokeColor=none;fontStyle=1" vertex="1" parent="1">
          <mxGeometry x="-580" y="5160" width="160" height="40" as="geometry" />
        </mxCell>
        <mxCell id="9GpVhyX3XaPiWzsppeSM-238" style="edgeStyle=none;rounded=0;orthogonalLoop=1;jettySize=auto;html=1;" edge="1" parent="1" source="9GpVhyX3XaPiWzsppeSM-30" target="9GpVhyX3XaPiWzsppeSM-228">
          <mxGeometry relative="1" as="geometry" />
        </mxCell>
        <mxCell id="9GpVhyX3XaPiWzsppeSM-244" style="edgeStyle=none;rounded=0;orthogonalLoop=1;jettySize=auto;html=1;" edge="1" parent="1" source="9GpVhyX3XaPiWzsppeSM-30" target="9GpVhyX3XaPiWzsppeSM-241">
          <mxGeometry relative="1" as="geometry" />
        </mxCell>
        <mxCell id="9GpVhyX3XaPiWzsppeSM-30" value="&lt;font color=&quot;#ffffff&quot; style=&quot;font-size: 17px&quot;&gt;项目策划计划&lt;/font&gt;" style="rounded=1;whiteSpace=wrap;html=1;gradientColor=#277116;fillColor=#60A337;fontSize=17;strokeColor=none;fontStyle=1" vertex="1" parent="1">
          <mxGeometry x="-140" y="3930" width="160" height="40" as="geometry" />
        </mxCell>
        <mxCell id="9GpVhyX3XaPiWzsppeSM-34" value="CMMI各过程域内主要活动间的顺序关联关系，梳理完成后期望得到较为完整的工作流程，对人员的任务分配以及职责划分提供参考" style="shape=tape;whiteSpace=wrap;html=1;" vertex="1" parent="1">
          <mxGeometry y="3130" width="360" height="100" as="geometry" />
        </mxCell>
        <mxCell id="9GpVhyX3XaPiWzsppeSM-236" style="edgeStyle=none;rounded=0;orthogonalLoop=1;jettySize=auto;html=1;" edge="1" parent="1" source="9GpVhyX3XaPiWzsppeSM-228" target="9GpVhyX3XaPiWzsppeSM-235">
          <mxGeometry relative="1" as="geometry" />
        </mxCell>
        <mxCell id="9GpVhyX3XaPiWzsppeSM-228" value="&lt;font color=&quot;#ffffff&quot; style=&quot;font-size: 17px&quot;&gt;项目初始估计&lt;/font&gt;" style="rounded=1;whiteSpace=wrap;html=1;gradientColor=#277116;fillColor=#60A337;fontSize=17;strokeColor=none;fontStyle=1" vertex="1" parent="1">
          <mxGeometry x="-300" y="4010" width="160" height="40" as="geometry" />
        </mxCell>
        <mxCell id="9GpVhyX3XaPiWzsppeSM-229" value="&lt;font color=&quot;#ffffff&quot; style=&quot;font-size: 17px&quot;&gt;项目详细估计&lt;/font&gt;" style="rounded=1;whiteSpace=wrap;html=1;gradientColor=#277116;fillColor=#60A337;fontSize=17;strokeColor=none;fontStyle=1" vertex="1" parent="1">
          <mxGeometry x="-270" y="4208" width="160" height="40" as="geometry" />
        </mxCell>
        <mxCell id="9GpVhyX3XaPiWzsppeSM-242" style="edgeStyle=none;rounded=0;orthogonalLoop=1;jettySize=auto;html=1;" edge="1" parent="1" source="9GpVhyX3XaPiWzsppeSM-232" target="9GpVhyX3XaPiWzsppeSM-241">
          <mxGeometry relative="1" as="geometry" />
        </mxCell>
        <mxCell id="9GpVhyX3XaPiWzsppeSM-232" value="项目初始估计表" style="shape=document;whiteSpace=wrap;html=1;boundedLbl=1;" vertex="1" parent="1">
          <mxGeometry x="-130" y="4085" width="90" height="55" as="geometry" />
        </mxCell>
        <mxCell id="9GpVhyX3XaPiWzsppeSM-237" style="edgeStyle=none;rounded=0;orthogonalLoop=1;jettySize=auto;html=1;" edge="1" parent="1" source="9GpVhyX3XaPiWzsppeSM-235" target="9GpVhyX3XaPiWzsppeSM-232">
          <mxGeometry relative="1" as="geometry" />
        </mxCell>
        <mxCell id="9GpVhyX3XaPiWzsppeSM-235" value="&amp;nbsp; &amp;nbsp; &amp;nbsp; 完成项目工作量估计" style="shape=step;perimeter=stepPerimeter;whiteSpace=wrap;html=1;fixedSize=1;" vertex="1" parent="1">
          <mxGeometry x="-278.5" y="4070" width="117" height="80" as="geometry" />
        </mxCell>
        <mxCell id="9GpVhyX3XaPiWzsppeSM-240" style="edgeStyle=none;rounded=0;orthogonalLoop=1;jettySize=auto;html=1;" edge="1" parent="1" source="9GpVhyX3XaPiWzsppeSM-239" target="9GpVhyX3XaPiWzsppeSM-229">
          <mxGeometry relative="1" as="geometry" />
        </mxCell>
        <mxCell id="9GpVhyX3XaPiWzsppeSM-239" value="项目详细估计在每个研制阶段开始前进行比较恰当。&lt;br&gt;&lt;br&gt;第一个阶段的详细估计可与初始估计一同进行，后续阶段可在前一阶段任务基本完成后开始详细估计" style="rounded=1;whiteSpace=wrap;html=1;" vertex="1" parent="1">
          <mxGeometry x="-530" y="4164" width="180" height="128" as="geometry" />
        </mxCell>
        <mxCell id="9GpVhyX3XaPiWzsppeSM-249" style="edgeStyle=none;rounded=0;orthogonalLoop=1;jettySize=auto;html=1;" edge="1" parent="1" source="9GpVhyX3XaPiWzsppeSM-241" target="9GpVhyX3XaPiWzsppeSM-248">
          <mxGeometry relative="1" as="geometry" />
        </mxCell>
        <mxCell id="9GpVhyX3XaPiWzsppeSM-241" value="&lt;font color=&quot;#ffffff&quot; style=&quot;font-size: 17px&quot;&gt;项目初始策划&lt;/font&gt;" style="rounded=1;whiteSpace=wrap;html=1;gradientColor=#277116;fillColor=#60A337;fontSize=17;strokeColor=none;fontStyle=1" vertex="1" parent="1">
          <mxGeometry x="220" y="4100" width="160" height="40" as="geometry" />
        </mxCell>
        <mxCell id="9GpVhyX3XaPiWzsppeSM-250" style="edgeStyle=none;rounded=0;orthogonalLoop=1;jettySize=auto;html=1;" edge="1" parent="1" source="9GpVhyX3XaPiWzsppeSM-245" target="9GpVhyX3XaPiWzsppeSM-248">
          <mxGeometry relative="1" as="geometry" />
        </mxCell>
        <mxCell id="9GpVhyX3XaPiWzsppeSM-245" value="&lt;font color=&quot;#ffffff&quot; style=&quot;font-size: 17px&quot;&gt;项目详细策划&lt;/font&gt;" style="rounded=1;whiteSpace=wrap;html=1;gradientColor=#277116;fillColor=#60A337;fontSize=17;strokeColor=none;fontStyle=1" vertex="1" parent="1">
          <mxGeometry x="40" y="4208" width="160" height="40" as="geometry" />
        </mxCell>
        <mxCell id="9GpVhyX3XaPiWzsppeSM-246" value="&lt;font color=&quot;#ffffff&quot; style=&quot;font-size: 17px&quot;&gt;获得对计划的承诺&lt;/font&gt;" style="rounded=1;whiteSpace=wrap;html=1;gradientColor=#277116;fillColor=#60A337;fontSize=17;strokeColor=none;fontStyle=1" vertex="1" parent="1">
          <mxGeometry x="40" y="4310" width="160" height="40" as="geometry" />
        </mxCell>
        <mxCell id="9GpVhyX3XaPiWzsppeSM-247" value="&lt;font color=&quot;#ffffff&quot; style=&quot;font-size: 17px&quot;&gt;计划变更控制&lt;/font&gt;" style="rounded=1;whiteSpace=wrap;html=1;gradientColor=#277116;fillColor=#60A337;fontSize=17;strokeColor=none;fontStyle=1" vertex="1" parent="1">
          <mxGeometry x="45" y="4400" width="160" height="40" as="geometry" />
        </mxCell>
        <mxCell id="9GpVhyX3XaPiWzsppeSM-251" style="edgeStyle=none;rounded=0;orthogonalLoop=1;jettySize=auto;html=1;" edge="1" parent="1" source="9GpVhyX3XaPiWzsppeSM-248" target="iFp0Jspzjo4-1ObcR2li-5">
          <mxGeometry relative="1" as="geometry" />
        </mxCell>
        <mxCell id="9GpVhyX3XaPiWzsppeSM-248" value="&lt;font color=&quot;#ffffff&quot; style=&quot;font-size: 17px&quot;&gt;软件开发计划&lt;/font&gt;" style="rounded=1;whiteSpace=wrap;html=1;gradientColor=#277116;fillColor=#60A337;fontSize=17;strokeColor=none;fontStyle=1" vertex="1" parent="1">
          <mxGeometry x="350" y="4200" width="160" height="40" as="geometry" />
        </mxCell>
        <mxCell id="9GpVhyX3XaPiWzsppeSM-252" value="国军标5000A 瀑布模型" style="strokeColor=#BAC8D3;fillColor=#23445D;fontSize=24;strokeWidth=2;fontFamily=Helvetica;html=1;fontColor=#FFFFFF;fontStyle=0;spacingBottom=8;spacingRight=0;spacingLeft=83;verticalAlign=top;" vertex="1" parent="1">
          <mxGeometry x="-2000" y="7760" width="5263.5" height="80" as="geometry" />
        </mxCell>
        <mxCell id="9GpVhyX3XaPiWzsppeSM-253" value="需求管理" style="strokeColor=#BAC8D3;fillColor=#23445D;fontSize=24;strokeWidth=2;horizontal=0;fontFamily=Helvetica;html=1;fontColor=#FFFFFF;fontStyle=0" vertex="1" parent="1">
          <mxGeometry x="-2000" y="7840" width="50" height="680" as="geometry" />
        </mxCell>
        <mxCell id="9GpVhyX3XaPiWzsppeSM-254" value="制定需求管理计划" style="strokeColor=#BAC8D3;fillColor=#5d7f99;fontSize=10;strokeWidth=2;horizontal=0;fontFamily=Helvetica;labelBackgroundColor=none;fontColor=#FFFFFF;" vertex="1" parent="1">
          <mxGeometry x="-1950" y="7840" width="40" height="170" as="geometry" />
        </mxCell>
        <mxCell id="9GpVhyX3XaPiWzsppeSM-255" value="v 1.0" style="strokeColor=#BAC8D3;fillColor=#5d7f99;fontSize=19;strokeWidth=2;fontFamily=Helvetica;html=1;labelBackgroundColor=none;fontColor=#FFFFFF;" vertex="1" parent="1">
          <mxGeometry x="-2000" y="7760" width="90" height="80" as="geometry" />
        </mxCell>
        <mxCell id="9GpVhyX3XaPiWzsppeSM-257" value="维护需求的双向可追溯性" style="strokeColor=#BAC8D3;fillColor=#5d7f99;fontSize=10;strokeWidth=2;horizontal=0;fontFamily=Helvetica;labelBackgroundColor=none;fontColor=#FFFFFF;" vertex="1" parent="1">
          <mxGeometry x="-1950" y="8180" width="40" height="170" as="geometry" />
        </mxCell>
        <mxCell id="9GpVhyX3XaPiWzsppeSM-260" value="项目策划" style="strokeColor=#BAC8D3;fillColor=#23445D;fontSize=24;strokeWidth=2;horizontal=0;fontFamily=Helvetica;html=1;fontColor=#FFFFFF;fontStyle=0" vertex="1" parent="1">
          <mxGeometry x="-2000" y="8520" width="50" height="1190" as="geometry" />
        </mxCell>
        <mxCell id="9GpVhyX3XaPiWzsppeSM-264" value="" style="strokeColor=#FFFFFF;fillColor=#BAC8D3;fontSize=18;strokeWidth=2;fontFamily=Helvetica;html=1;opacity=60;" vertex="1" parent="1">
          <mxGeometry x="-1910" y="7840" width="646.67" height="170" as="geometry" />
        </mxCell>
        <mxCell id="9GpVhyX3XaPiWzsppeSM-266" value="" style="strokeColor=#FFFFFF;fillColor=#BAC8D3;fontSize=18;strokeWidth=2;fontFamily=Helvetica;html=1;opacity=60;" vertex="1" parent="1">
          <mxGeometry x="-1910" y="8180" width="646.67" height="170" as="geometry" />
        </mxCell>
        <mxCell id="9GpVhyX3XaPiWzsppeSM-761" style="edgeStyle=orthogonalEdgeStyle;rounded=1;orthogonalLoop=1;jettySize=auto;html=1;endArrow=none;endFill=0;strokeColor=#2F5B7C;strokeWidth=5;fontSize=10;fontColor=#000000;" edge="1" parent="1" source="9GpVhyX3XaPiWzsppeSM-286" target="9GpVhyX3XaPiWzsppeSM-760">
          <mxGeometry relative="1" as="geometry" />
        </mxCell>
        <mxCell id="9GpVhyX3XaPiWzsppeSM-286" value="系统分析与设计" style="rounded=1;fillColor=#23445D;strokeColor=none;strokeWidth=2;fontFamily=Helvetica;html=1;gradientColor=none;fontColor=#FFFFFF;" vertex="1" parent="1">
          <mxGeometry x="-1879.995442176871" y="7860" width="127" height="50" as="geometry" />
        </mxCell>
        <mxCell id="9GpVhyX3XaPiWzsppeSM-336" value="" style="group" vertex="1" connectable="0" parent="1">
          <mxGeometry x="-1910" y="7800" width="646.6666666666666" height="40" as="geometry" />
        </mxCell>
        <mxCell id="9GpVhyX3XaPiWzsppeSM-337" value="需求获取阶段" style="strokeColor=#BAC8D3;fillColor=#5d7f99;fontSize=19;strokeWidth=2;fontFamily=Helvetica;html=1;labelBackgroundColor=none;fontColor=#FFFFFF;" vertex="1" parent="9GpVhyX3XaPiWzsppeSM-336">
          <mxGeometry width="646.6656362699642" height="40" as="geometry" />
        </mxCell>
        <mxCell id="9GpVhyX3XaPiWzsppeSM-338" value="项目策划阶段" style="strokeColor=#BAC8D3;fillColor=#5d7f99;fontSize=19;strokeWidth=2;fontFamily=Helvetica;html=1;labelBackgroundColor=none;fontColor=#FFFFFF;" vertex="1" parent="9GpVhyX3XaPiWzsppeSM-336">
          <mxGeometry x="646.6656362699642" width="646.6656362699642" height="40" as="geometry" />
        </mxCell>
        <mxCell id="9GpVhyX3XaPiWzsppeSM-339" value="软件需求分析" style="strokeColor=#BAC8D3;fillColor=#5d7f99;fontSize=19;strokeWidth=2;fontFamily=Helvetica;html=1;labelBackgroundColor=none;fontColor=#FFFFFF;" vertex="1" parent="9GpVhyX3XaPiWzsppeSM-336">
          <mxGeometry x="1293.3312725399282" width="646.6666666666666" height="40" as="geometry" />
        </mxCell>
        <mxCell id="9GpVhyX3XaPiWzsppeSM-340" value="SG2制定项目计划" style="ellipse;whiteSpace=wrap;html=1;shadow=0;fontFamily=Helvetica;fontSize=20;fontColor=#FFFFFF;align=center;strokeWidth=3;fillColor=#1699D3;strokeColor=none;" vertex="1" parent="1">
          <mxGeometry x="3083" y="4942.5" width="120" height="120" as="geometry" />
        </mxCell>
        <mxCell id="9GpVhyX3XaPiWzsppeSM-341" value="SG3获得对计划的承诺" style="ellipse;whiteSpace=wrap;html=1;shadow=0;fontFamily=Helvetica;fontSize=20;fontColor=#FFFFFF;align=center;strokeWidth=3;fillColor=#F08705;strokeColor=none;gradientColor=none;" vertex="1" parent="1">
          <mxGeometry x="3519" y="5026.25" width="120" height="120" as="geometry" />
        </mxCell>
        <mxCell id="9GpVhyX3XaPiWzsppeSM-348" style="endArrow=none;strokeWidth=6;strokeColor=#1699D3;html=1;" edge="1" source="9GpVhyX3XaPiWzsppeSM-481" target="9GpVhyX3XaPiWzsppeSM-340" parent="1">
          <mxGeometry relative="1" as="geometry" />
        </mxCell>
        <mxCell id="9GpVhyX3XaPiWzsppeSM-349" style="endArrow=none;strokeWidth=6;strokeColor=#f08705;html=1;" edge="1" source="9GpVhyX3XaPiWzsppeSM-481" target="9GpVhyX3XaPiWzsppeSM-341" parent="1">
          <mxGeometry relative="1" as="geometry" />
        </mxCell>
        <mxCell id="9GpVhyX3XaPiWzsppeSM-352" style="endArrow=none;strokeWidth=6;strokeColor=#736CA8;html=1;" edge="1" source="9GpVhyX3XaPiWzsppeSM-481" target="9GpVhyX3XaPiWzsppeSM-482" parent="1">
          <mxGeometry relative="1" as="geometry" />
        </mxCell>
        <mxCell id="9GpVhyX3XaPiWzsppeSM-357" value="SP2.1编制预算和进度表" style="rounded=1;fillColor=#64BBE2;strokeColor=none;strokeWidth=3;shadow=0;html=1;fontColor=#FFFFFF;" vertex="1" parent="1">
          <mxGeometry x="2886.5" y="5112.5" width="140" height="40" as="geometry" />
        </mxCell>
        <mxCell id="9GpVhyX3XaPiWzsppeSM-358" value="SP2.2标识项目风险" style="rounded=1;fillColor=#64BBE2;strokeColor=none;strokeWidth=3;shadow=0;html=1;fontColor=#FFFFFF;" vertex="1" parent="1">
          <mxGeometry x="2896.5" y="4982.5" width="130" height="40" as="geometry" />
        </mxCell>
        <mxCell id="9GpVhyX3XaPiWzsppeSM-359" value="SP2.3制定数据管理计划" style="rounded=1;fillColor=#64BBE2;strokeColor=none;strokeWidth=3;shadow=0;html=1;fontColor=#FFFFFF;" vertex="1" parent="1">
          <mxGeometry x="2886.5" y="4852.5" width="130" height="40" as="geometry" />
        </mxCell>
        <mxCell id="9GpVhyX3XaPiWzsppeSM-360" value="SP2.4制定项目资源计划" style="rounded=1;fillColor=#64BBE2;strokeColor=none;strokeWidth=3;shadow=0;html=1;fontColor=#FFFFFF;" vertex="1" parent="1">
          <mxGeometry x="2996.5" y="4797.5" width="151.5" height="40" as="geometry" />
        </mxCell>
        <mxCell id="9GpVhyX3XaPiWzsppeSM-361" value="SP2.5策划所需的知识和技能" style="rounded=1;fillColor=#64BBE2;strokeColor=none;strokeWidth=3;shadow=0;html=1;fontColor=#FFFFFF;" vertex="1" parent="1">
          <mxGeometry x="3168" y="4817.5" width="178.5" height="40" as="geometry" />
        </mxCell>
        <mxCell id="9GpVhyX3XaPiWzsppeSM-362" value="SP2.6制定利益相关方参与的计划" style="rounded=1;fillColor=#64BBE2;strokeColor=none;strokeWidth=3;shadow=0;html=1;fontColor=#FFFFFF;" vertex="1" parent="1">
          <mxGeometry x="3243.75" y="4903.75" width="188.5" height="40" as="geometry" />
        </mxCell>
        <mxCell id="9GpVhyX3XaPiWzsppeSM-364" value="SP2.7制定项目计划" style="rounded=1;fillColor=#64BBE2;strokeColor=none;strokeWidth=3;shadow=0;html=1;fontColor=#FFFFFF;" vertex="1" parent="1">
          <mxGeometry x="3273" y="5017.5" width="130" height="40" as="geometry" />
        </mxCell>
        <mxCell id="9GpVhyX3XaPiWzsppeSM-365" value="" style="edgeStyle=none;endArrow=none;strokeWidth=3;strokeColor=#64BBE2;html=1;" edge="1" source="9GpVhyX3XaPiWzsppeSM-340" target="9GpVhyX3XaPiWzsppeSM-364" parent="1">
          <mxGeometry x="2338" y="4727.5" width="100" height="100" as="geometry">
            <mxPoint x="2338" y="4827.5" as="sourcePoint" />
            <mxPoint x="2438" y="4727.5" as="targetPoint" />
          </mxGeometry>
        </mxCell>
        <mxCell id="9GpVhyX3XaPiWzsppeSM-369" value="" style="edgeStyle=none;endArrow=none;strokeWidth=3;strokeColor=#64BBE2;html=1;" edge="1" source="9GpVhyX3XaPiWzsppeSM-340" target="9GpVhyX3XaPiWzsppeSM-357" parent="1">
          <mxGeometry x="2338" y="4727.5" width="100" height="100" as="geometry">
            <mxPoint x="2338" y="4827.5" as="sourcePoint" />
            <mxPoint x="2438" y="4727.5" as="targetPoint" />
          </mxGeometry>
        </mxCell>
        <mxCell id="9GpVhyX3XaPiWzsppeSM-370" value="" style="edgeStyle=none;endArrow=none;strokeWidth=3;strokeColor=#64BBE2;html=1;" edge="1" source="9GpVhyX3XaPiWzsppeSM-340" target="9GpVhyX3XaPiWzsppeSM-358" parent="1">
          <mxGeometry x="2338" y="4727.5" width="100" height="100" as="geometry">
            <mxPoint x="2338" y="4827.5" as="sourcePoint" />
            <mxPoint x="2438" y="4727.5" as="targetPoint" />
          </mxGeometry>
        </mxCell>
        <mxCell id="9GpVhyX3XaPiWzsppeSM-371" value="" style="edgeStyle=none;endArrow=none;strokeWidth=3;strokeColor=#64BBE2;html=1;" edge="1" source="9GpVhyX3XaPiWzsppeSM-340" target="9GpVhyX3XaPiWzsppeSM-359" parent="1">
          <mxGeometry x="2338" y="4727.5" width="100" height="100" as="geometry">
            <mxPoint x="2338" y="4827.5" as="sourcePoint" />
            <mxPoint x="2438" y="4727.5" as="targetPoint" />
          </mxGeometry>
        </mxCell>
        <mxCell id="9GpVhyX3XaPiWzsppeSM-372" value="" style="edgeStyle=none;endArrow=none;strokeWidth=3;strokeColor=#64BBE2;html=1;" edge="1" source="9GpVhyX3XaPiWzsppeSM-340" target="9GpVhyX3XaPiWzsppeSM-360" parent="1">
          <mxGeometry x="2338" y="4727.5" width="100" height="100" as="geometry">
            <mxPoint x="2338" y="4827.5" as="sourcePoint" />
            <mxPoint x="2438" y="4727.5" as="targetPoint" />
          </mxGeometry>
        </mxCell>
        <mxCell id="9GpVhyX3XaPiWzsppeSM-373" value="" style="edgeStyle=none;endArrow=none;strokeWidth=3;strokeColor=#64BBE2;html=1;" edge="1" source="9GpVhyX3XaPiWzsppeSM-340" target="9GpVhyX3XaPiWzsppeSM-361" parent="1">
          <mxGeometry x="2338" y="4727.5" width="100" height="100" as="geometry">
            <mxPoint x="2338" y="4827.5" as="sourcePoint" />
            <mxPoint x="2438" y="4727.5" as="targetPoint" />
          </mxGeometry>
        </mxCell>
        <mxCell id="9GpVhyX3XaPiWzsppeSM-374" value="" style="edgeStyle=none;endArrow=none;strokeWidth=3;strokeColor=#64BBE2;html=1;" edge="1" source="9GpVhyX3XaPiWzsppeSM-340" target="9GpVhyX3XaPiWzsppeSM-362" parent="1">
          <mxGeometry x="2338" y="4727.5" width="100" height="100" as="geometry">
            <mxPoint x="2338" y="4827.5" as="sourcePoint" />
            <mxPoint x="2438" y="4727.5" as="targetPoint" />
          </mxGeometry>
        </mxCell>
        <mxCell id="9GpVhyX3XaPiWzsppeSM-380" value="SP3.1使工作与资源水平相协调" style="rounded=1;fillColor=#f5af58;strokeColor=none;strokeWidth=3;shadow=0;html=1;fontColor=#FFFFFF;" vertex="1" parent="1">
          <mxGeometry x="3479" y="4920" width="180" height="40" as="geometry" />
        </mxCell>
        <mxCell id="9GpVhyX3XaPiWzsppeSM-381" value="SP3.2获得计划承诺" style="rounded=1;fillColor=#f5af58;strokeColor=none;strokeWidth=3;shadow=0;html=1;fontColor=#FFFFFF;" vertex="1" parent="1">
          <mxGeometry x="3721" y="4991.25" width="120" height="40" as="geometry" />
        </mxCell>
        <mxCell id="9GpVhyX3XaPiWzsppeSM-392" value="" style="edgeStyle=none;endArrow=none;strokeWidth=3;strokeColor=#F5AF58;html=1;" edge="1" source="9GpVhyX3XaPiWzsppeSM-341" target="9GpVhyX3XaPiWzsppeSM-380" parent="1">
          <mxGeometry x="2555.5" y="4775" width="100" height="100" as="geometry">
            <mxPoint x="2555.5" y="4875" as="sourcePoint" />
            <mxPoint x="2655.5" y="4775" as="targetPoint" />
          </mxGeometry>
        </mxCell>
        <mxCell id="9GpVhyX3XaPiWzsppeSM-393" value="" style="edgeStyle=none;endArrow=none;strokeWidth=3;strokeColor=#F5AF58;html=1;" edge="1" source="9GpVhyX3XaPiWzsppeSM-341" target="9GpVhyX3XaPiWzsppeSM-381" parent="1">
          <mxGeometry x="2555.5" y="4775" width="100" height="100" as="geometry">
            <mxPoint x="2555.5" y="4875" as="sourcePoint" />
            <mxPoint x="2655.5" y="4775" as="targetPoint" />
          </mxGeometry>
        </mxCell>
        <mxCell id="9GpVhyX3XaPiWzsppeSM-481" value="项目策划" style="ellipse;whiteSpace=wrap;html=1;shadow=0;fontFamily=Helvetica;fontSize=30;fontColor=#2F5B7C;align=center;strokeColor=#2F5B7C;strokeWidth=6;fillColor=#FFFFFF;fontStyle=1;gradientColor=none;" vertex="1" parent="1">
          <mxGeometry x="3315.75" y="5243.75" width="270" height="270" as="geometry" />
        </mxCell>
        <mxCell id="9GpVhyX3XaPiWzsppeSM-482" value="SG1建立估计值" style="ellipse;whiteSpace=wrap;html=1;shadow=0;fontFamily=Helvetica;fontSize=20;fontColor=#FFFFFF;align=center;strokeWidth=3;fillColor=#736ca8;strokeColor=none;" vertex="1" parent="1">
          <mxGeometry x="2954" y="5338.13" width="120" height="120" as="geometry" />
        </mxCell>
        <mxCell id="9GpVhyX3XaPiWzsppeSM-483" value="SP1.1估计项目的范围" style="rounded=1;fillColor=#a29dc5;strokeColor=none;strokeWidth=3;shadow=0;html=1;fontColor=#FFFFFF;" vertex="1" parent="1">
          <mxGeometry x="2779" y="5528.13" width="120" height="40" as="geometry" />
        </mxCell>
        <mxCell id="9GpVhyX3XaPiWzsppeSM-484" value="SP1.2建立工作产品和任务属性估计值" style="rounded=1;fillColor=#a29dc5;strokeColor=none;strokeWidth=3;shadow=0;html=1;fontColor=#FFFFFF;" vertex="1" parent="1">
          <mxGeometry x="2709" y="5304.38" width="222.5" height="40" as="geometry" />
        </mxCell>
        <mxCell id="9GpVhyX3XaPiWzsppeSM-485" value="SP1.3定义项目生存周期" style="rounded=1;fillColor=#a29dc5;strokeColor=none;strokeWidth=3;shadow=0;html=1;fontColor=#FFFFFF;" vertex="1" parent="1">
          <mxGeometry x="2853" y="5189.38" width="157.5" height="40" as="geometry" />
        </mxCell>
        <mxCell id="9GpVhyX3XaPiWzsppeSM-486" value="SP1.4建立工作量和成本的估计值" style="rounded=1;fillColor=#a29dc5;strokeColor=none;strokeWidth=3;shadow=0;html=1;fontColor=#FFFFFF;" vertex="1" parent="1">
          <mxGeometry x="3058" y="5243.13" width="192.5" height="40" as="geometry" />
        </mxCell>
        <mxCell id="9GpVhyX3XaPiWzsppeSM-494" value="" style="edgeStyle=none;endArrow=none;strokeWidth=3;strokeColor=#A29DC5;html=1;" edge="1" source="9GpVhyX3XaPiWzsppeSM-482" target="9GpVhyX3XaPiWzsppeSM-483" parent="1">
          <mxGeometry x="1144" y="4313.13" width="100" height="100" as="geometry">
            <mxPoint x="1144" y="4413.13" as="sourcePoint" />
            <mxPoint x="1244" y="4313.13" as="targetPoint" />
          </mxGeometry>
        </mxCell>
        <mxCell id="9GpVhyX3XaPiWzsppeSM-496" value="" style="edgeStyle=none;endArrow=none;strokeWidth=3;strokeColor=#A29DC5;html=1;" edge="1" source="9GpVhyX3XaPiWzsppeSM-482" target="9GpVhyX3XaPiWzsppeSM-484" parent="1">
          <mxGeometry x="1144" y="4313.13" width="100" height="100" as="geometry">
            <mxPoint x="1144" y="4413.13" as="sourcePoint" />
            <mxPoint x="1244" y="4313.13" as="targetPoint" />
          </mxGeometry>
        </mxCell>
        <mxCell id="9GpVhyX3XaPiWzsppeSM-497" value="" style="edgeStyle=none;endArrow=none;strokeWidth=3;strokeColor=#A29DC5;html=1;" edge="1" source="9GpVhyX3XaPiWzsppeSM-482" target="9GpVhyX3XaPiWzsppeSM-485" parent="1">
          <mxGeometry x="1144" y="4313.13" width="100" height="100" as="geometry">
            <mxPoint x="1144" y="4413.13" as="sourcePoint" />
            <mxPoint x="1244" y="4313.13" as="targetPoint" />
          </mxGeometry>
        </mxCell>
        <mxCell id="9GpVhyX3XaPiWzsppeSM-498" value="" style="edgeStyle=none;endArrow=none;strokeWidth=3;strokeColor=#A29DC5;html=1;" edge="1" source="9GpVhyX3XaPiWzsppeSM-482" target="9GpVhyX3XaPiWzsppeSM-486" parent="1">
          <mxGeometry x="1144" y="4313.13" width="100" height="100" as="geometry">
            <mxPoint x="1144" y="4413.13" as="sourcePoint" />
            <mxPoint x="1244" y="4313.13" as="targetPoint" />
          </mxGeometry>
        </mxCell>
        <mxCell id="9GpVhyX3XaPiWzsppeSM-509" value="SG1对照计划监督项目" style="ellipse;whiteSpace=wrap;html=1;shadow=0;fontFamily=Helvetica;fontSize=20;fontColor=#FFFFFF;align=center;strokeWidth=3;fillColor=#1699D3;strokeColor=none;" vertex="1" parent="1">
          <mxGeometry x="3600" y="6455" width="120" height="120" as="geometry" />
        </mxCell>
        <mxCell id="9GpVhyX3XaPiWzsppeSM-511" style="endArrow=none;strokeWidth=6;strokeColor=#1699D3;html=1;" edge="1" source="9GpVhyX3XaPiWzsppeSM-532" target="9GpVhyX3XaPiWzsppeSM-509" parent="1">
          <mxGeometry relative="1" as="geometry" />
        </mxCell>
        <mxCell id="9GpVhyX3XaPiWzsppeSM-513" style="endArrow=none;strokeWidth=6;strokeColor=#736CA8;html=1;" edge="1" source="9GpVhyX3XaPiWzsppeSM-532" target="9GpVhyX3XaPiWzsppeSM-533" parent="1">
          <mxGeometry relative="1" as="geometry" />
        </mxCell>
        <mxCell id="9GpVhyX3XaPiWzsppeSM-514" value="SP1.1监督项目策划参数" style="rounded=1;fillColor=#64BBE2;strokeColor=none;strokeWidth=3;shadow=0;html=1;fontColor=#FFFFFF;" vertex="1" parent="1">
          <mxGeometry x="3810" y="6595" width="140" height="40" as="geometry" />
        </mxCell>
        <mxCell id="9GpVhyX3XaPiWzsppeSM-515" value="SP1.2监督承诺" style="rounded=1;fillColor=#64BBE2;strokeColor=none;strokeWidth=3;shadow=0;html=1;fontColor=#FFFFFF;" vertex="1" parent="1">
          <mxGeometry x="3715.75" y="6655" width="130" height="40" as="geometry" />
        </mxCell>
        <mxCell id="9GpVhyX3XaPiWzsppeSM-516" value="SP1.3监督项目风险" style="rounded=1;fillColor=#64BBE2;strokeColor=none;strokeWidth=3;shadow=0;html=1;fontColor=#FFFFFF;" vertex="1" parent="1">
          <mxGeometry x="3585.75" y="6705" width="130" height="40" as="geometry" />
        </mxCell>
        <mxCell id="9GpVhyX3XaPiWzsppeSM-517" value="SP1.4监督数据管理" style="rounded=1;fillColor=#64BBE2;strokeColor=none;strokeWidth=3;shadow=0;html=1;fontColor=#FFFFFF;" vertex="1" parent="1">
          <mxGeometry x="3434.25" y="6645" width="151.5" height="40" as="geometry" />
        </mxCell>
        <mxCell id="9GpVhyX3XaPiWzsppeSM-518" value="SP1.5监督利益相关方参与" style="rounded=1;fillColor=#64BBE2;strokeColor=none;strokeWidth=3;shadow=0;html=1;fontColor=#FFFFFF;" vertex="1" parent="1">
          <mxGeometry x="3360" y="6565" width="178.5" height="40" as="geometry" />
        </mxCell>
        <mxCell id="9GpVhyX3XaPiWzsppeSM-519" value="SP1.6实施进展评审" style="rounded=1;fillColor=#64BBE2;strokeColor=none;strokeWidth=3;shadow=0;html=1;fontColor=#FFFFFF;" vertex="1" parent="1">
          <mxGeometry x="3350" y="6455" width="188.5" height="40" as="geometry" />
        </mxCell>
        <mxCell id="9GpVhyX3XaPiWzsppeSM-520" value="SP1.7实施里程碑评审" style="rounded=1;fillColor=#64BBE2;strokeColor=none;strokeWidth=3;shadow=0;html=1;fontColor=#FFFFFF;" vertex="1" parent="1">
          <mxGeometry x="3815" y="6475" width="130" height="40" as="geometry" />
        </mxCell>
        <mxCell id="9GpVhyX3XaPiWzsppeSM-521" value="" style="edgeStyle=none;endArrow=none;strokeWidth=3;strokeColor=#64BBE2;html=1;" edge="1" source="9GpVhyX3XaPiWzsppeSM-509" target="9GpVhyX3XaPiWzsppeSM-520" parent="1">
          <mxGeometry x="2843" y="6441.25" width="100" height="100" as="geometry">
            <mxPoint x="2843" y="6541.25" as="sourcePoint" />
            <mxPoint x="2943" y="6441.25" as="targetPoint" />
          </mxGeometry>
        </mxCell>
        <mxCell id="9GpVhyX3XaPiWzsppeSM-522" value="" style="edgeStyle=none;endArrow=none;strokeWidth=3;strokeColor=#64BBE2;html=1;" edge="1" source="9GpVhyX3XaPiWzsppeSM-509" target="9GpVhyX3XaPiWzsppeSM-514" parent="1">
          <mxGeometry x="2843" y="6441.25" width="100" height="100" as="geometry">
            <mxPoint x="2843" y="6541.25" as="sourcePoint" />
            <mxPoint x="2943" y="6441.25" as="targetPoint" />
          </mxGeometry>
        </mxCell>
        <mxCell id="9GpVhyX3XaPiWzsppeSM-523" value="" style="edgeStyle=none;endArrow=none;strokeWidth=3;strokeColor=#64BBE2;html=1;" edge="1" source="9GpVhyX3XaPiWzsppeSM-509" target="9GpVhyX3XaPiWzsppeSM-515" parent="1">
          <mxGeometry x="2843" y="6441.25" width="100" height="100" as="geometry">
            <mxPoint x="2843" y="6541.25" as="sourcePoint" />
            <mxPoint x="2943" y="6441.25" as="targetPoint" />
          </mxGeometry>
        </mxCell>
        <mxCell id="9GpVhyX3XaPiWzsppeSM-524" value="" style="edgeStyle=none;endArrow=none;strokeWidth=3;strokeColor=#64BBE2;html=1;" edge="1" source="9GpVhyX3XaPiWzsppeSM-509" target="9GpVhyX3XaPiWzsppeSM-516" parent="1">
          <mxGeometry x="2843" y="6441.25" width="100" height="100" as="geometry">
            <mxPoint x="2843" y="6541.25" as="sourcePoint" />
            <mxPoint x="2943" y="6441.25" as="targetPoint" />
          </mxGeometry>
        </mxCell>
        <mxCell id="9GpVhyX3XaPiWzsppeSM-525" value="" style="edgeStyle=none;endArrow=none;strokeWidth=3;strokeColor=#64BBE2;html=1;" edge="1" source="9GpVhyX3XaPiWzsppeSM-509" target="9GpVhyX3XaPiWzsppeSM-517" parent="1">
          <mxGeometry x="2843" y="6441.25" width="100" height="100" as="geometry">
            <mxPoint x="2843" y="6541.25" as="sourcePoint" />
            <mxPoint x="2943" y="6441.25" as="targetPoint" />
          </mxGeometry>
        </mxCell>
        <mxCell id="9GpVhyX3XaPiWzsppeSM-526" value="" style="edgeStyle=none;endArrow=none;strokeWidth=3;strokeColor=#64BBE2;html=1;" edge="1" source="9GpVhyX3XaPiWzsppeSM-509" target="9GpVhyX3XaPiWzsppeSM-518" parent="1">
          <mxGeometry x="2843" y="6441.25" width="100" height="100" as="geometry">
            <mxPoint x="2843" y="6541.25" as="sourcePoint" />
            <mxPoint x="2943" y="6441.25" as="targetPoint" />
          </mxGeometry>
        </mxCell>
        <mxCell id="9GpVhyX3XaPiWzsppeSM-527" value="" style="edgeStyle=none;endArrow=none;strokeWidth=3;strokeColor=#64BBE2;html=1;" edge="1" source="9GpVhyX3XaPiWzsppeSM-509" target="9GpVhyX3XaPiWzsppeSM-519" parent="1">
          <mxGeometry x="2843" y="6441.25" width="100" height="100" as="geometry">
            <mxPoint x="2843" y="6541.25" as="sourcePoint" />
            <mxPoint x="2943" y="6441.25" as="targetPoint" />
          </mxGeometry>
        </mxCell>
        <mxCell id="9GpVhyX3XaPiWzsppeSM-532" value="项目监控" style="ellipse;whiteSpace=wrap;html=1;shadow=0;fontFamily=Helvetica;fontSize=30;fontColor=#2F5B7C;align=center;strokeColor=#2F5B7C;strokeWidth=6;fillColor=#FFFFFF;fontStyle=1;gradientColor=none;" vertex="1" parent="1">
          <mxGeometry x="3392" y="6040" width="270" height="270" as="geometry" />
        </mxCell>
        <mxCell id="9GpVhyX3XaPiWzsppeSM-533" value="SG2管理纠正措施直到结束" style="ellipse;whiteSpace=wrap;html=1;shadow=0;fontFamily=Helvetica;fontSize=20;fontColor=#FFFFFF;align=center;strokeWidth=3;fillColor=#736ca8;strokeColor=none;" vertex="1" parent="1">
          <mxGeometry x="3188" y="6314.75" width="120" height="120" as="geometry" />
        </mxCell>
        <mxCell id="9GpVhyX3XaPiWzsppeSM-535" value="SP2.3管理纠正措施" style="rounded=1;fillColor=#a29dc5;strokeColor=none;strokeWidth=3;shadow=0;html=1;fontColor=#FFFFFF;" vertex="1" parent="1">
          <mxGeometry x="3028" y="6236" width="222.5" height="40" as="geometry" />
        </mxCell>
        <mxCell id="9GpVhyX3XaPiWzsppeSM-536" value="SP2.2采取纠正措施" style="rounded=1;fillColor=#a29dc5;strokeColor=none;strokeWidth=3;shadow=0;html=1;fontColor=#FFFFFF;" vertex="1" parent="1">
          <mxGeometry x="2972" y="6339.75" width="157.5" height="40" as="geometry" />
        </mxCell>
        <mxCell id="9GpVhyX3XaPiWzsppeSM-537" value="SP2.1分析问题" style="rounded=1;fillColor=#a29dc5;strokeColor=none;strokeWidth=3;shadow=0;html=1;fontColor=#FFFFFF;" vertex="1" parent="1">
          <mxGeometry x="2984.5" y="6499.75" width="192.5" height="40" as="geometry" />
        </mxCell>
        <mxCell id="9GpVhyX3XaPiWzsppeSM-539" value="" style="edgeStyle=none;endArrow=none;strokeWidth=3;strokeColor=#A29DC5;html=1;" edge="1" source="9GpVhyX3XaPiWzsppeSM-533" target="9GpVhyX3XaPiWzsppeSM-535" parent="1">
          <mxGeometry x="1553" y="5618.5" width="100" height="100" as="geometry">
            <mxPoint x="1553" y="5718.5" as="sourcePoint" />
            <mxPoint x="1653" y="5618.5" as="targetPoint" />
          </mxGeometry>
        </mxCell>
        <mxCell id="9GpVhyX3XaPiWzsppeSM-540" value="" style="edgeStyle=none;endArrow=none;strokeWidth=3;strokeColor=#A29DC5;html=1;" edge="1" source="9GpVhyX3XaPiWzsppeSM-533" target="9GpVhyX3XaPiWzsppeSM-536" parent="1">
          <mxGeometry x="1553" y="5618.5" width="100" height="100" as="geometry">
            <mxPoint x="1553" y="5718.5" as="sourcePoint" />
            <mxPoint x="1653" y="5618.5" as="targetPoint" />
          </mxGeometry>
        </mxCell>
        <mxCell id="9GpVhyX3XaPiWzsppeSM-541" value="" style="edgeStyle=none;endArrow=none;strokeWidth=3;strokeColor=#A29DC5;html=1;" edge="1" source="9GpVhyX3XaPiWzsppeSM-533" target="9GpVhyX3XaPiWzsppeSM-537" parent="1">
          <mxGeometry x="1553" y="5618.5" width="100" height="100" as="geometry">
            <mxPoint x="1553" y="5718.5" as="sourcePoint" />
            <mxPoint x="1653" y="5618.5" as="targetPoint" />
          </mxGeometry>
        </mxCell>
        <mxCell id="9GpVhyX3XaPiWzsppeSM-542" value="SG1对照计划监督项目" style="ellipse;whiteSpace=wrap;html=1;shadow=0;fontFamily=Helvetica;fontSize=20;fontColor=#FFFFFF;align=center;strokeWidth=3;fillColor=#1699D3;strokeColor=none;" vertex="1" parent="1">
          <mxGeometry x="4885.5" y="5722" width="120" height="120" as="geometry" />
        </mxCell>
        <mxCell id="9GpVhyX3XaPiWzsppeSM-543" style="endArrow=none;strokeWidth=6;strokeColor=#1699D3;html=1;" edge="1" source="9GpVhyX3XaPiWzsppeSM-692" target="9GpVhyX3XaPiWzsppeSM-542" parent="1">
          <mxGeometry relative="1" as="geometry">
            <mxPoint x="4858.102410892692" y="5714.215134489768" as="sourcePoint" />
          </mxGeometry>
        </mxCell>
        <mxCell id="9GpVhyX3XaPiWzsppeSM-544" style="endArrow=none;strokeWidth=6;strokeColor=#736CA8;html=1;" edge="1" source="9GpVhyX3XaPiWzsppeSM-559" target="9GpVhyX3XaPiWzsppeSM-560" parent="1">
          <mxGeometry relative="1" as="geometry" />
        </mxCell>
        <mxCell id="9GpVhyX3XaPiWzsppeSM-545" value="SP1.1监督项目策划参数" style="rounded=1;fillColor=#64BBE2;strokeColor=none;strokeWidth=3;shadow=0;html=1;fontColor=#FFFFFF;" vertex="1" parent="1">
          <mxGeometry x="4659" y="5842" width="140" height="40" as="geometry" />
        </mxCell>
        <mxCell id="9GpVhyX3XaPiWzsppeSM-546" value="SP1.2监督承诺" style="rounded=1;fillColor=#64BBE2;strokeColor=none;strokeWidth=3;shadow=0;html=1;fontColor=#FFFFFF;" vertex="1" parent="1">
          <mxGeometry x="4669" y="5722" width="130" height="40" as="geometry" />
        </mxCell>
        <mxCell id="9GpVhyX3XaPiWzsppeSM-547" value="SP1.3监督项目风险" style="rounded=1;fillColor=#64BBE2;strokeColor=none;strokeWidth=3;shadow=0;html=1;fontColor=#FFFFFF;" vertex="1" parent="1">
          <mxGeometry x="4689" y="5632" width="130" height="40" as="geometry" />
        </mxCell>
        <mxCell id="9GpVhyX3XaPiWzsppeSM-548" value="SP1.4监督数据管理" style="rounded=1;fillColor=#64BBE2;strokeColor=none;strokeWidth=3;shadow=0;html=1;fontColor=#FFFFFF;" vertex="1" parent="1">
          <mxGeometry x="4829" y="5580.75" width="151.5" height="40" as="geometry" />
        </mxCell>
        <mxCell id="9GpVhyX3XaPiWzsppeSM-549" value="SP1.5监督利益相关方参与" style="rounded=1;fillColor=#64BBE2;strokeColor=none;strokeWidth=3;shadow=0;html=1;fontColor=#FFFFFF;" vertex="1" parent="1">
          <mxGeometry x="4970.5" y="5637" width="178.5" height="40" as="geometry" />
        </mxCell>
        <mxCell id="9GpVhyX3XaPiWzsppeSM-550" value="SP1.6实施进展评审" style="rounded=1;fillColor=#64BBE2;strokeColor=none;strokeWidth=3;shadow=0;html=1;fontColor=#FFFFFF;" vertex="1" parent="1">
          <mxGeometry x="5039" y="5727" width="188.5" height="40" as="geometry" />
        </mxCell>
        <mxCell id="9GpVhyX3XaPiWzsppeSM-551" value="SP1.7实施里程碑评审" style="rounded=1;fillColor=#64BBE2;strokeColor=none;strokeWidth=3;shadow=0;html=1;fontColor=#FFFFFF;" vertex="1" parent="1">
          <mxGeometry x="4994.75" y="5852" width="130" height="40" as="geometry" />
        </mxCell>
        <mxCell id="9GpVhyX3XaPiWzsppeSM-552" value="" style="edgeStyle=none;endArrow=none;strokeWidth=3;strokeColor=#64BBE2;html=1;" edge="1" source="9GpVhyX3XaPiWzsppeSM-542" target="9GpVhyX3XaPiWzsppeSM-551" parent="1">
          <mxGeometry x="4140.5" y="5507" width="100" height="100" as="geometry">
            <mxPoint x="4140.5" y="5607" as="sourcePoint" />
            <mxPoint x="4240.5" y="5507" as="targetPoint" />
          </mxGeometry>
        </mxCell>
        <mxCell id="9GpVhyX3XaPiWzsppeSM-553" value="" style="edgeStyle=none;endArrow=none;strokeWidth=3;strokeColor=#64BBE2;html=1;" edge="1" source="9GpVhyX3XaPiWzsppeSM-542" target="9GpVhyX3XaPiWzsppeSM-545" parent="1">
          <mxGeometry x="4140.5" y="5507" width="100" height="100" as="geometry">
            <mxPoint x="4140.5" y="5607" as="sourcePoint" />
            <mxPoint x="4240.5" y="5507" as="targetPoint" />
          </mxGeometry>
        </mxCell>
        <mxCell id="9GpVhyX3XaPiWzsppeSM-554" value="" style="edgeStyle=none;endArrow=none;strokeWidth=3;strokeColor=#64BBE2;html=1;" edge="1" source="9GpVhyX3XaPiWzsppeSM-542" target="9GpVhyX3XaPiWzsppeSM-546" parent="1">
          <mxGeometry x="4140.5" y="5507" width="100" height="100" as="geometry">
            <mxPoint x="4140.5" y="5607" as="sourcePoint" />
            <mxPoint x="4240.5" y="5507" as="targetPoint" />
          </mxGeometry>
        </mxCell>
        <mxCell id="9GpVhyX3XaPiWzsppeSM-555" value="" style="edgeStyle=none;endArrow=none;strokeWidth=3;strokeColor=#64BBE2;html=1;" edge="1" source="9GpVhyX3XaPiWzsppeSM-542" target="9GpVhyX3XaPiWzsppeSM-547" parent="1">
          <mxGeometry x="4140.5" y="5507" width="100" height="100" as="geometry">
            <mxPoint x="4140.5" y="5607" as="sourcePoint" />
            <mxPoint x="4240.5" y="5507" as="targetPoint" />
          </mxGeometry>
        </mxCell>
        <mxCell id="9GpVhyX3XaPiWzsppeSM-556" value="" style="edgeStyle=none;endArrow=none;strokeWidth=3;strokeColor=#64BBE2;html=1;" edge="1" source="9GpVhyX3XaPiWzsppeSM-542" target="9GpVhyX3XaPiWzsppeSM-548" parent="1">
          <mxGeometry x="4140.5" y="5507" width="100" height="100" as="geometry">
            <mxPoint x="4140.5" y="5607" as="sourcePoint" />
            <mxPoint x="4240.5" y="5507" as="targetPoint" />
          </mxGeometry>
        </mxCell>
        <mxCell id="9GpVhyX3XaPiWzsppeSM-557" value="" style="edgeStyle=none;endArrow=none;strokeWidth=3;strokeColor=#64BBE2;html=1;" edge="1" source="9GpVhyX3XaPiWzsppeSM-542" target="9GpVhyX3XaPiWzsppeSM-549" parent="1">
          <mxGeometry x="4140.5" y="5507" width="100" height="100" as="geometry">
            <mxPoint x="4140.5" y="5607" as="sourcePoint" />
            <mxPoint x="4240.5" y="5507" as="targetPoint" />
          </mxGeometry>
        </mxCell>
        <mxCell id="9GpVhyX3XaPiWzsppeSM-558" value="" style="edgeStyle=none;endArrow=none;strokeWidth=3;strokeColor=#64BBE2;html=1;" edge="1" source="9GpVhyX3XaPiWzsppeSM-542" target="9GpVhyX3XaPiWzsppeSM-550" parent="1">
          <mxGeometry x="4140.5" y="5507" width="100" height="100" as="geometry">
            <mxPoint x="4140.5" y="5607" as="sourcePoint" />
            <mxPoint x="4240.5" y="5507" as="targetPoint" />
          </mxGeometry>
        </mxCell>
        <mxCell id="9GpVhyX3XaPiWzsppeSM-559" value="过程与产品质量保证" style="ellipse;whiteSpace=wrap;html=1;shadow=0;fontFamily=Helvetica;fontSize=30;fontColor=#2F5B7C;align=center;strokeColor=#2F5B7C;strokeWidth=6;fillColor=#FFFFFF;fontStyle=1;gradientColor=none;" vertex="1" parent="1">
          <mxGeometry x="3880" y="5205" width="270" height="270" as="geometry" />
        </mxCell>
        <mxCell id="9GpVhyX3XaPiWzsppeSM-560" value="SG2管理纠正措施直到结束" style="ellipse;whiteSpace=wrap;html=1;shadow=0;fontFamily=Helvetica;fontSize=20;fontColor=#FFFFFF;align=center;strokeWidth=3;fillColor=#736ca8;strokeColor=none;" vertex="1" parent="1">
          <mxGeometry x="4400" y="5260" width="120" height="120" as="geometry" />
        </mxCell>
        <mxCell id="9GpVhyX3XaPiWzsppeSM-561" value="SP2.3管理纠正措施" style="rounded=1;fillColor=#a29dc5;strokeColor=none;strokeWidth=3;shadow=0;html=1;fontColor=#FFFFFF;" vertex="1" parent="1">
          <mxGeometry x="4522" y="5403.75" width="222.5" height="40" as="geometry" />
        </mxCell>
        <mxCell id="9GpVhyX3XaPiWzsppeSM-562" value="SP2.2采取纠正措施" style="rounded=1;fillColor=#a29dc5;strokeColor=none;strokeWidth=3;shadow=0;html=1;fontColor=#FFFFFF;" vertex="1" parent="1">
          <mxGeometry x="4587" y="5230" width="157.5" height="40" as="geometry" />
        </mxCell>
        <mxCell id="9GpVhyX3XaPiWzsppeSM-563" value="SP2.1分析问题" style="rounded=1;fillColor=#a29dc5;strokeColor=none;strokeWidth=3;shadow=0;html=1;fontColor=#FFFFFF;" vertex="1" parent="1">
          <mxGeometry x="4420" y="5115" width="192.5" height="40" as="geometry" />
        </mxCell>
        <mxCell id="9GpVhyX3XaPiWzsppeSM-564" value="" style="edgeStyle=none;endArrow=none;strokeWidth=3;strokeColor=#A29DC5;html=1;" edge="1" source="9GpVhyX3XaPiWzsppeSM-560" target="9GpVhyX3XaPiWzsppeSM-561" parent="1">
          <mxGeometry x="2765" y="4563.75" width="100" height="100" as="geometry">
            <mxPoint x="2765" y="4663.75" as="sourcePoint" />
            <mxPoint x="2865" y="4563.75" as="targetPoint" />
          </mxGeometry>
        </mxCell>
        <mxCell id="9GpVhyX3XaPiWzsppeSM-565" value="" style="edgeStyle=none;endArrow=none;strokeWidth=3;strokeColor=#A29DC5;html=1;" edge="1" source="9GpVhyX3XaPiWzsppeSM-560" target="9GpVhyX3XaPiWzsppeSM-562" parent="1">
          <mxGeometry x="2765" y="4563.75" width="100" height="100" as="geometry">
            <mxPoint x="2765" y="4663.75" as="sourcePoint" />
            <mxPoint x="2865" y="4563.75" as="targetPoint" />
          </mxGeometry>
        </mxCell>
        <mxCell id="9GpVhyX3XaPiWzsppeSM-566" value="" style="edgeStyle=none;endArrow=none;strokeWidth=3;strokeColor=#A29DC5;html=1;" edge="1" source="9GpVhyX3XaPiWzsppeSM-560" target="9GpVhyX3XaPiWzsppeSM-563" parent="1">
          <mxGeometry x="2765" y="4563.75" width="100" height="100" as="geometry">
            <mxPoint x="2765" y="4663.75" as="sourcePoint" />
            <mxPoint x="2865" y="4563.75" as="targetPoint" />
          </mxGeometry>
        </mxCell>
        <mxCell id="9GpVhyX3XaPiWzsppeSM-567" value="3管理需求更改" style="ellipse;whiteSpace=wrap;html=1;shadow=0;fontFamily=Helvetica;fontSize=20;fontColor=#FFFFFF;align=center;strokeWidth=3;fillColor=#E85642;strokeColor=none;" vertex="1" parent="1">
          <mxGeometry x="4062.5" y="4890" width="120" height="120" as="geometry" />
        </mxCell>
        <mxCell id="9GpVhyX3XaPiWzsppeSM-570" value="Hawk" style="rounded=1;fillColor=#f08e81;strokeColor=none;strokeWidth=3;shadow=0;html=1;fontColor=#FFFFFF;" vertex="1" parent="1">
          <mxGeometry x="3862.5" y="4970" width="120" height="40" as="geometry" />
        </mxCell>
        <mxCell id="9GpVhyX3XaPiWzsppeSM-571" value="Falcon" style="rounded=1;fillColor=#f08e81;strokeColor=none;strokeWidth=3;shadow=0;html=1;fontColor=#FFFFFF;" vertex="1" parent="1">
          <mxGeometry x="3892.5" y="4905" width="120" height="40" as="geometry" />
        </mxCell>
        <mxCell id="9GpVhyX3XaPiWzsppeSM-572" value="Sparrow" style="rounded=1;fillColor=#f08e81;strokeColor=none;strokeWidth=3;shadow=0;html=1;fontColor=#FFFFFF;" vertex="1" parent="1">
          <mxGeometry x="3912.5" y="4825" width="120" height="40" as="geometry" />
        </mxCell>
        <mxCell id="9GpVhyX3XaPiWzsppeSM-573" value="Stork" style="rounded=1;fillColor=#f08e81;strokeColor=none;strokeWidth=3;shadow=0;html=1;fontColor=#FFFFFF;" vertex="1" parent="1">
          <mxGeometry x="4002.5" y="4755" width="120" height="40" as="geometry" />
        </mxCell>
        <mxCell id="9GpVhyX3XaPiWzsppeSM-574" value="Flamingo" style="rounded=1;fillColor=#f08e81;strokeColor=none;strokeWidth=3;shadow=0;html=1;fontColor=#FFFFFF;" vertex="1" parent="1">
          <mxGeometry x="4137.5" y="4700" width="120" height="40" as="geometry" />
        </mxCell>
        <mxCell id="9GpVhyX3XaPiWzsppeSM-575" value="Penguin" style="rounded=1;fillColor=#f08e81;strokeColor=none;strokeWidth=3;shadow=0;html=1;fontColor=#FFFFFF;" vertex="1" parent="1">
          <mxGeometry x="4232.5" y="4785" width="120" height="40" as="geometry" />
        </mxCell>
        <mxCell id="9GpVhyX3XaPiWzsppeSM-576" value="Owl" style="rounded=1;fillColor=#f08e81;strokeColor=none;strokeWidth=3;shadow=0;html=1;fontColor=#FFFFFF;" vertex="1" parent="1">
          <mxGeometry x="4287.5" y="4855" width="120" height="40" as="geometry" />
        </mxCell>
        <mxCell id="9GpVhyX3XaPiWzsppeSM-577" value="Albatross" style="rounded=1;fillColor=#f08e81;strokeColor=none;strokeWidth=3;shadow=0;html=1;fontColor=#FFFFFF;" vertex="1" parent="1">
          <mxGeometry x="3892.5" y="5057.87" width="120" height="40" as="geometry" />
        </mxCell>
        <mxCell id="9GpVhyX3XaPiWzsppeSM-579" value="Swallow" style="rounded=1;fillColor=#f08e81;strokeColor=none;strokeWidth=3;shadow=0;html=1;fontColor=#FFFFFF;" vertex="1" parent="1">
          <mxGeometry x="4247.5" y="4995" width="120" height="40" as="geometry" />
        </mxCell>
        <mxCell id="9GpVhyX3XaPiWzsppeSM-581" value="" style="edgeStyle=none;endArrow=none;strokeWidth=3;strokeColor=#F08E81;html=1;" edge="1" source="9GpVhyX3XaPiWzsppeSM-567" target="9GpVhyX3XaPiWzsppeSM-570" parent="1">
          <mxGeometry x="2402.5" y="4640" width="100" height="100" as="geometry">
            <mxPoint x="2402.5" y="4740" as="sourcePoint" />
            <mxPoint x="2502.5" y="4640" as="targetPoint" />
          </mxGeometry>
        </mxCell>
        <mxCell id="9GpVhyX3XaPiWzsppeSM-582" value="" style="edgeStyle=none;endArrow=none;strokeWidth=3;strokeColor=#F08E81;html=1;" edge="1" source="9GpVhyX3XaPiWzsppeSM-567" target="9GpVhyX3XaPiWzsppeSM-571" parent="1">
          <mxGeometry x="2402.5" y="4640" width="100" height="100" as="geometry">
            <mxPoint x="2402.5" y="4740" as="sourcePoint" />
            <mxPoint x="2502.5" y="4640" as="targetPoint" />
          </mxGeometry>
        </mxCell>
        <mxCell id="9GpVhyX3XaPiWzsppeSM-583" value="" style="edgeStyle=none;endArrow=none;strokeWidth=3;strokeColor=#F08E81;html=1;" edge="1" source="9GpVhyX3XaPiWzsppeSM-567" target="9GpVhyX3XaPiWzsppeSM-572" parent="1">
          <mxGeometry x="2402.5" y="4640" width="100" height="100" as="geometry">
            <mxPoint x="2402.5" y="4740" as="sourcePoint" />
            <mxPoint x="2502.5" y="4640" as="targetPoint" />
          </mxGeometry>
        </mxCell>
        <mxCell id="9GpVhyX3XaPiWzsppeSM-584" value="" style="edgeStyle=none;endArrow=none;strokeWidth=3;strokeColor=#F08E81;html=1;" edge="1" source="9GpVhyX3XaPiWzsppeSM-567" target="9GpVhyX3XaPiWzsppeSM-573" parent="1">
          <mxGeometry x="2402.5" y="4640" width="100" height="100" as="geometry">
            <mxPoint x="2402.5" y="4740" as="sourcePoint" />
            <mxPoint x="2502.5" y="4640" as="targetPoint" />
          </mxGeometry>
        </mxCell>
        <mxCell id="9GpVhyX3XaPiWzsppeSM-585" value="" style="edgeStyle=none;endArrow=none;strokeWidth=3;strokeColor=#F08E81;html=1;" edge="1" source="9GpVhyX3XaPiWzsppeSM-567" target="9GpVhyX3XaPiWzsppeSM-574" parent="1">
          <mxGeometry x="2402.5" y="4640" width="100" height="100" as="geometry">
            <mxPoint x="2402.5" y="4740" as="sourcePoint" />
            <mxPoint x="2502.5" y="4640" as="targetPoint" />
          </mxGeometry>
        </mxCell>
        <mxCell id="9GpVhyX3XaPiWzsppeSM-586" value="" style="edgeStyle=none;endArrow=none;strokeWidth=3;strokeColor=#F08E81;html=1;" edge="1" source="9GpVhyX3XaPiWzsppeSM-567" target="9GpVhyX3XaPiWzsppeSM-575" parent="1">
          <mxGeometry x="2402.5" y="4640" width="100" height="100" as="geometry">
            <mxPoint x="2402.5" y="4740" as="sourcePoint" />
            <mxPoint x="2502.5" y="4640" as="targetPoint" />
          </mxGeometry>
        </mxCell>
        <mxCell id="9GpVhyX3XaPiWzsppeSM-587" value="" style="edgeStyle=none;endArrow=none;strokeWidth=3;strokeColor=#F08E81;html=1;" edge="1" source="9GpVhyX3XaPiWzsppeSM-567" target="9GpVhyX3XaPiWzsppeSM-576" parent="1">
          <mxGeometry x="2402.5" y="4640" width="100" height="100" as="geometry">
            <mxPoint x="2402.5" y="4740" as="sourcePoint" />
            <mxPoint x="2502.5" y="4640" as="targetPoint" />
          </mxGeometry>
        </mxCell>
        <mxCell id="9GpVhyX3XaPiWzsppeSM-589" value="" style="edgeStyle=none;endArrow=none;strokeWidth=3;strokeColor=#F08E81;html=1;" edge="1" source="9GpVhyX3XaPiWzsppeSM-567" target="9GpVhyX3XaPiWzsppeSM-579" parent="1">
          <mxGeometry x="2402.5" y="4640" width="100" height="100" as="geometry">
            <mxPoint x="2402.5" y="4740" as="sourcePoint" />
            <mxPoint x="2502.5" y="4640" as="targetPoint" />
          </mxGeometry>
        </mxCell>
        <mxCell id="9GpVhyX3XaPiWzsppeSM-591" value="" style="edgeStyle=none;endArrow=none;strokeWidth=3;strokeColor=#F08E81;html=1;" edge="1" source="9GpVhyX3XaPiWzsppeSM-567" target="9GpVhyX3XaPiWzsppeSM-577" parent="1">
          <mxGeometry x="2402.5" y="4640" width="100" height="100" as="geometry">
            <mxPoint x="2402.5" y="4740" as="sourcePoint" />
            <mxPoint x="2502.5" y="4640" as="targetPoint" />
          </mxGeometry>
        </mxCell>
        <mxCell id="9GpVhyX3XaPiWzsppeSM-592" style="edgeStyle=orthogonalEdgeStyle;rounded=0;html=1;exitX=0.75;exitY=0;entryX=0.75;entryY=0;startArrow=none;startFill=0;endArrow=block;endFill=1;jettySize=auto;orthogonalLoop=1;strokeColor=#12aab5;strokeWidth=6;fontSize=20;fontColor=#2F5B7C;" edge="1" source="9GpVhyX3XaPiWzsppeSM-571" target="9GpVhyX3XaPiWzsppeSM-571" parent="1">
          <mxGeometry relative="1" as="geometry" />
        </mxCell>
        <mxCell id="9GpVhyX3XaPiWzsppeSM-593" style="endArrow=none;strokeWidth=6;strokeColor=#E85642;html=1;" edge="1" target="9GpVhyX3XaPiWzsppeSM-567" parent="1" source="9GpVhyX3XaPiWzsppeSM-559">
          <mxGeometry relative="1" as="geometry">
            <mxPoint x="3129.4896095242584" y="5520.0639813144335" as="sourcePoint" />
          </mxGeometry>
        </mxCell>
        <mxCell id="9GpVhyX3XaPiWzsppeSM-597" style="endArrow=none;strokeWidth=6;strokeColor=#736CA8;html=1;" edge="1" source="9GpVhyX3XaPiWzsppeSM-612" target="9GpVhyX3XaPiWzsppeSM-613" parent="1">
          <mxGeometry relative="1" as="geometry" />
        </mxCell>
        <mxCell id="9GpVhyX3XaPiWzsppeSM-612" value="测量与分析" style="ellipse;whiteSpace=wrap;html=1;shadow=0;fontFamily=Helvetica;fontSize=30;fontColor=#2F5B7C;align=center;strokeColor=#2F5B7C;strokeWidth=6;fillColor=#FFFFFF;fontStyle=1;gradientColor=none;" vertex="1" parent="1">
          <mxGeometry x="3066.5" y="5688.37" width="270" height="270" as="geometry" />
        </mxCell>
        <mxCell id="9GpVhyX3XaPiWzsppeSM-613" value="SG2管理纠正措施直到结束" style="ellipse;whiteSpace=wrap;html=1;shadow=0;fontFamily=Helvetica;fontSize=20;fontColor=#FFFFFF;align=center;strokeWidth=3;fillColor=#736ca8;strokeColor=none;" vertex="1" parent="1">
          <mxGeometry x="2916.5" y="5892" width="120" height="120" as="geometry" />
        </mxCell>
        <mxCell id="9GpVhyX3XaPiWzsppeSM-614" value="SP2.3管理纠正措施" style="rounded=1;fillColor=#a29dc5;strokeColor=none;strokeWidth=3;shadow=0;html=1;fontColor=#FFFFFF;" vertex="1" parent="1">
          <mxGeometry x="2645.25" y="5902" width="222.5" height="40" as="geometry" />
        </mxCell>
        <mxCell id="9GpVhyX3XaPiWzsppeSM-615" value="SP2.2采取纠正措施" style="rounded=1;fillColor=#a29dc5;strokeColor=none;strokeWidth=3;shadow=0;html=1;fontColor=#FFFFFF;" vertex="1" parent="1">
          <mxGeometry x="2716.5" y="6026" width="157.5" height="40" as="geometry" />
        </mxCell>
        <mxCell id="9GpVhyX3XaPiWzsppeSM-616" value="SP2.1分析问题" style="rounded=1;fillColor=#a29dc5;strokeColor=none;strokeWidth=3;shadow=0;html=1;fontColor=#FFFFFF;" vertex="1" parent="1">
          <mxGeometry x="2852.75" y="6086" width="192.5" height="40" as="geometry" />
        </mxCell>
        <mxCell id="9GpVhyX3XaPiWzsppeSM-617" value="" style="edgeStyle=none;endArrow=none;strokeWidth=3;strokeColor=#A29DC5;html=1;" edge="1" source="9GpVhyX3XaPiWzsppeSM-613" target="9GpVhyX3XaPiWzsppeSM-614" parent="1">
          <mxGeometry x="1102" y="5340.75" width="100" height="100" as="geometry">
            <mxPoint x="1102" y="5440.75" as="sourcePoint" />
            <mxPoint x="1202" y="5340.75" as="targetPoint" />
          </mxGeometry>
        </mxCell>
        <mxCell id="9GpVhyX3XaPiWzsppeSM-618" value="" style="edgeStyle=none;endArrow=none;strokeWidth=3;strokeColor=#A29DC5;html=1;" edge="1" source="9GpVhyX3XaPiWzsppeSM-613" target="9GpVhyX3XaPiWzsppeSM-615" parent="1">
          <mxGeometry x="1102" y="5340.75" width="100" height="100" as="geometry">
            <mxPoint x="1102" y="5440.75" as="sourcePoint" />
            <mxPoint x="1202" y="5340.75" as="targetPoint" />
          </mxGeometry>
        </mxCell>
        <mxCell id="9GpVhyX3XaPiWzsppeSM-619" value="" style="edgeStyle=none;endArrow=none;strokeWidth=3;strokeColor=#A29DC5;html=1;" edge="1" source="9GpVhyX3XaPiWzsppeSM-613" target="9GpVhyX3XaPiWzsppeSM-616" parent="1">
          <mxGeometry x="1102" y="5340.75" width="100" height="100" as="geometry">
            <mxPoint x="1102" y="5440.75" as="sourcePoint" />
            <mxPoint x="1202" y="5340.75" as="targetPoint" />
          </mxGeometry>
        </mxCell>
        <mxCell id="9GpVhyX3XaPiWzsppeSM-620" value="SG1安排测量与分析活动" style="ellipse;whiteSpace=wrap;html=1;shadow=0;fontFamily=Helvetica;fontSize=20;fontColor=#FFFFFF;align=center;strokeWidth=3;fillColor=#E85642;strokeColor=none;" vertex="1" parent="1">
          <mxGeometry x="2886.5" y="5682" width="120" height="120" as="geometry" />
        </mxCell>
        <mxCell id="9GpVhyX3XaPiWzsppeSM-621" value="SP1.1确定测量目标" style="rounded=1;fillColor=#f08e81;strokeColor=none;strokeWidth=3;shadow=0;html=1;fontColor=#FFFFFF;" vertex="1" parent="1">
          <mxGeometry x="2746.5" y="5827" width="120" height="40" as="geometry" />
        </mxCell>
        <mxCell id="9GpVhyX3XaPiWzsppeSM-622" value="SP1.2指明测量项" style="rounded=1;fillColor=#f08e81;strokeColor=none;strokeWidth=3;shadow=0;html=1;fontColor=#FFFFFF;" vertex="1" parent="1">
          <mxGeometry x="2696.5" y="5722" width="120" height="40" as="geometry" />
        </mxCell>
        <mxCell id="9GpVhyX3XaPiWzsppeSM-623" value="SP1.3指明数据采集和存储规程" style="rounded=1;fillColor=#f08e81;strokeColor=none;strokeWidth=3;shadow=0;html=1;fontColor=#FFFFFF;" vertex="1" parent="1">
          <mxGeometry x="2696.5" y="5621" width="170" height="40" as="geometry" />
        </mxCell>
        <mxCell id="9GpVhyX3XaPiWzsppeSM-624" value="SP1.4指明分析规程" style="rounded=1;fillColor=#f08e81;strokeColor=none;strokeWidth=3;shadow=0;html=1;fontColor=#FFFFFF;" vertex="1" parent="1">
          <mxGeometry x="2889" y="5610.62" width="120" height="40" as="geometry" />
        </mxCell>
        <mxCell id="9GpVhyX3XaPiWzsppeSM-630" value="" style="edgeStyle=none;endArrow=none;strokeWidth=3;strokeColor=#F08E81;html=1;" edge="1" source="9GpVhyX3XaPiWzsppeSM-620" target="9GpVhyX3XaPiWzsppeSM-621" parent="1">
          <mxGeometry x="1366.5" y="5335.62" width="100" height="100" as="geometry">
            <mxPoint x="1366.5" y="5435.62" as="sourcePoint" />
            <mxPoint x="1466.5" y="5335.62" as="targetPoint" />
          </mxGeometry>
        </mxCell>
        <mxCell id="9GpVhyX3XaPiWzsppeSM-631" value="" style="edgeStyle=none;endArrow=none;strokeWidth=3;strokeColor=#F08E81;html=1;" edge="1" source="9GpVhyX3XaPiWzsppeSM-620" target="9GpVhyX3XaPiWzsppeSM-622" parent="1">
          <mxGeometry x="1366.5" y="5335.62" width="100" height="100" as="geometry">
            <mxPoint x="1366.5" y="5435.62" as="sourcePoint" />
            <mxPoint x="1466.5" y="5335.62" as="targetPoint" />
          </mxGeometry>
        </mxCell>
        <mxCell id="9GpVhyX3XaPiWzsppeSM-632" value="" style="edgeStyle=none;endArrow=none;strokeWidth=3;strokeColor=#F08E81;html=1;" edge="1" source="9GpVhyX3XaPiWzsppeSM-620" target="9GpVhyX3XaPiWzsppeSM-623" parent="1">
          <mxGeometry x="1366.5" y="5335.62" width="100" height="100" as="geometry">
            <mxPoint x="1366.5" y="5435.62" as="sourcePoint" />
            <mxPoint x="1466.5" y="5335.62" as="targetPoint" />
          </mxGeometry>
        </mxCell>
        <mxCell id="9GpVhyX3XaPiWzsppeSM-633" value="" style="edgeStyle=none;endArrow=none;strokeWidth=3;strokeColor=#F08E81;html=1;" edge="1" source="9GpVhyX3XaPiWzsppeSM-620" target="9GpVhyX3XaPiWzsppeSM-624" parent="1">
          <mxGeometry x="1366.5" y="5335.62" width="100" height="100" as="geometry">
            <mxPoint x="1366.5" y="5435.62" as="sourcePoint" />
            <mxPoint x="1466.5" y="5335.62" as="targetPoint" />
          </mxGeometry>
        </mxCell>
        <mxCell id="9GpVhyX3XaPiWzsppeSM-639" style="edgeStyle=orthogonalEdgeStyle;rounded=0;html=1;exitX=0.75;exitY=0;entryX=0.75;entryY=0;startArrow=none;startFill=0;endArrow=block;endFill=1;jettySize=auto;orthogonalLoop=1;strokeColor=#12aab5;strokeWidth=6;fontSize=20;fontColor=#2F5B7C;" edge="1" source="9GpVhyX3XaPiWzsppeSM-622" target="9GpVhyX3XaPiWzsppeSM-622" parent="1">
          <mxGeometry relative="1" as="geometry" />
        </mxCell>
        <mxCell id="9GpVhyX3XaPiWzsppeSM-640" style="endArrow=none;strokeWidth=6;strokeColor=#E85642;html=1;" edge="1" source="9GpVhyX3XaPiWzsppeSM-612" target="9GpVhyX3XaPiWzsppeSM-620" parent="1">
          <mxGeometry relative="1" as="geometry">
            <mxPoint x="2065.9896095242584" y="6200.683981314433" as="sourcePoint" />
          </mxGeometry>
        </mxCell>
        <mxCell id="9GpVhyX3XaPiWzsppeSM-642" value="SG1管理需求" style="ellipse;whiteSpace=wrap;html=1;shadow=0;fontFamily=Helvetica;fontSize=20;fontColor=#FFFFFF;align=center;strokeWidth=3;fillColor=#F08705;strokeColor=none;gradientColor=none;" vertex="1" parent="1">
          <mxGeometry x="4371.38" y="6214" width="120" height="120" as="geometry" />
        </mxCell>
        <mxCell id="9GpVhyX3XaPiWzsppeSM-643" value="SP1.3管理需求更改" style="rounded=1;fillColor=#f5af58;strokeColor=none;strokeWidth=3;shadow=0;html=1;fontColor=#FFFFFF;" vertex="1" parent="1">
          <mxGeometry x="4574.63" y="6339" width="120" height="40" as="geometry" />
        </mxCell>
        <mxCell id="9GpVhyX3XaPiWzsppeSM-644" value="SP1.2获得对需求的承诺" style="rounded=1;fillColor=#f5af58;strokeColor=none;strokeWidth=3;shadow=0;html=1;fontColor=#FFFFFF;" vertex="1" parent="1">
          <mxGeometry x="4559.25" y="6214" width="150.75" height="40" as="geometry" />
        </mxCell>
        <mxCell id="9GpVhyX3XaPiWzsppeSM-645" value="SP1.1获得对需求的理解" style="rounded=1;fillColor=#f5af58;strokeColor=none;strokeWidth=3;shadow=0;html=1;fontColor=#FFFFFF;" vertex="1" parent="1">
          <mxGeometry x="4421.38" y="6090" width="140" height="40" as="geometry" />
        </mxCell>
        <mxCell id="9GpVhyX3XaPiWzsppeSM-653" value="SP1.5标识项目工作与需求之间的不一致性" style="rounded=1;fillColor=#f5af58;strokeColor=none;strokeWidth=3;shadow=0;html=1;fontColor=#FFFFFF;" vertex="1" parent="1">
          <mxGeometry x="4171.38" y="6404" width="260" height="40" as="geometry" />
        </mxCell>
        <mxCell id="9GpVhyX3XaPiWzsppeSM-654" value="SP1.4维护需求的双向可追溯性" style="rounded=1;fillColor=#f5af58;strokeColor=none;strokeWidth=3;shadow=0;html=1;fontColor=#FFFFFF;" vertex="1" parent="1">
          <mxGeometry x="4418.63" y="6474" width="190" height="40" as="geometry" />
        </mxCell>
        <mxCell id="9GpVhyX3XaPiWzsppeSM-655" value="" style="edgeStyle=none;endArrow=none;strokeWidth=3;strokeColor=#F5AF58;html=1;" edge="1" source="9GpVhyX3XaPiWzsppeSM-642" target="9GpVhyX3XaPiWzsppeSM-643" parent="1">
          <mxGeometry x="3719.75" y="5899" width="100" height="100" as="geometry">
            <mxPoint x="3719.75" y="5999" as="sourcePoint" />
            <mxPoint x="3819.75" y="5899" as="targetPoint" />
          </mxGeometry>
        </mxCell>
        <mxCell id="9GpVhyX3XaPiWzsppeSM-656" value="" style="edgeStyle=none;endArrow=none;strokeWidth=3;strokeColor=#F5AF58;html=1;" edge="1" source="9GpVhyX3XaPiWzsppeSM-642" target="9GpVhyX3XaPiWzsppeSM-644" parent="1">
          <mxGeometry x="3719.75" y="5899" width="100" height="100" as="geometry">
            <mxPoint x="3719.75" y="5999" as="sourcePoint" />
            <mxPoint x="3819.75" y="5899" as="targetPoint" />
          </mxGeometry>
        </mxCell>
        <mxCell id="9GpVhyX3XaPiWzsppeSM-657" value="" style="edgeStyle=none;endArrow=none;strokeWidth=3;strokeColor=#F5AF58;html=1;" edge="1" source="9GpVhyX3XaPiWzsppeSM-642" target="9GpVhyX3XaPiWzsppeSM-645" parent="1">
          <mxGeometry x="3719.75" y="5899" width="100" height="100" as="geometry">
            <mxPoint x="3719.75" y="5999" as="sourcePoint" />
            <mxPoint x="3819.75" y="5899" as="targetPoint" />
          </mxGeometry>
        </mxCell>
        <mxCell id="9GpVhyX3XaPiWzsppeSM-665" value="" style="edgeStyle=none;endArrow=none;strokeWidth=3;strokeColor=#F5AF58;html=1;" edge="1" source="9GpVhyX3XaPiWzsppeSM-642" target="9GpVhyX3XaPiWzsppeSM-653" parent="1">
          <mxGeometry x="3719.75" y="5899" width="100" height="100" as="geometry">
            <mxPoint x="3719.75" y="5999" as="sourcePoint" />
            <mxPoint x="3819.75" y="5899" as="targetPoint" />
          </mxGeometry>
        </mxCell>
        <mxCell id="9GpVhyX3XaPiWzsppeSM-666" value="" style="edgeStyle=none;endArrow=none;strokeWidth=3;strokeColor=#F5AF58;html=1;" edge="1" source="9GpVhyX3XaPiWzsppeSM-642" target="9GpVhyX3XaPiWzsppeSM-654" parent="1">
          <mxGeometry x="3719.75" y="5899" width="100" height="100" as="geometry">
            <mxPoint x="3719.75" y="5999" as="sourcePoint" />
            <mxPoint x="3819.75" y="5899" as="targetPoint" />
          </mxGeometry>
        </mxCell>
        <mxCell id="9GpVhyX3XaPiWzsppeSM-667" value="需求管理" style="ellipse;whiteSpace=wrap;html=1;shadow=0;fontFamily=Helvetica;fontSize=30;fontColor=#2F5B7C;align=center;strokeColor=#2F5B7C;strokeWidth=6;fillColor=#FFFFFF;fontStyle=1;gradientColor=none;" vertex="1" parent="1">
          <mxGeometry x="4000" y="5946" width="270" height="270" as="geometry" />
        </mxCell>
        <mxCell id="9GpVhyX3XaPiWzsppeSM-668" style="endArrow=none;strokeWidth=6;strokeColor=#f08705;html=1;" edge="1" parent="1" source="9GpVhyX3XaPiWzsppeSM-642" target="9GpVhyX3XaPiWzsppeSM-667">
          <mxGeometry relative="1" as="geometry">
            <mxPoint x="4387.6221022122845" y="6057.334233407868" as="sourcePoint" />
            <mxPoint x="4431.01017679454" y="5739.623674040957" as="targetPoint" />
          </mxGeometry>
        </mxCell>
        <mxCell id="9GpVhyX3XaPiWzsppeSM-691" style="edgeStyle=none;rounded=0;orthogonalLoop=1;jettySize=auto;html=1;exitX=0.25;exitY=0;exitDx=0;exitDy=0;" edge="1" parent="1" source="9GpVhyX3XaPiWzsppeSM-653" target="9GpVhyX3XaPiWzsppeSM-653">
          <mxGeometry relative="1" as="geometry" />
        </mxCell>
        <mxCell id="9GpVhyX3XaPiWzsppeSM-692" value="配置管理" style="ellipse;whiteSpace=wrap;html=1;shadow=0;fontFamily=Helvetica;fontSize=30;fontColor=#2F5B7C;align=center;strokeColor=#2F5B7C;strokeWidth=6;fillColor=#FFFFFF;fontStyle=1;gradientColor=none;" vertex="1" parent="1">
          <mxGeometry x="4330" y="5626" width="270" height="270" as="geometry" />
        </mxCell>
        <mxCell id="9GpVhyX3XaPiWzsppeSM-694" style="edgeStyle=none;rounded=0;orthogonalLoop=1;jettySize=auto;html=1;strokeWidth=5;endArrow=none;endFill=0;strokeColor=#2F5B7C;" edge="1" parent="1" source="9GpVhyX3XaPiWzsppeSM-693" target="9GpVhyX3XaPiWzsppeSM-559">
          <mxGeometry relative="1" as="geometry" />
        </mxCell>
        <mxCell id="9GpVhyX3XaPiWzsppeSM-695" style="edgeStyle=none;rounded=0;orthogonalLoop=1;jettySize=auto;html=1;endArrow=none;endFill=0;strokeColor=#2F5B7C;strokeWidth=5;" edge="1" parent="1" source="9GpVhyX3XaPiWzsppeSM-693" target="9GpVhyX3XaPiWzsppeSM-692">
          <mxGeometry relative="1" as="geometry" />
        </mxCell>
        <mxCell id="9GpVhyX3XaPiWzsppeSM-696" style="edgeStyle=none;rounded=0;orthogonalLoop=1;jettySize=auto;html=1;endArrow=none;endFill=0;strokeColor=#2F5B7C;strokeWidth=5;" edge="1" parent="1" source="9GpVhyX3XaPiWzsppeSM-693" target="9GpVhyX3XaPiWzsppeSM-532">
          <mxGeometry relative="1" as="geometry" />
        </mxCell>
        <mxCell id="9GpVhyX3XaPiWzsppeSM-697" style="edgeStyle=none;rounded=0;orthogonalLoop=1;jettySize=auto;html=1;endArrow=none;endFill=0;strokeColor=#2F5B7C;strokeWidth=5;" edge="1" parent="1" source="9GpVhyX3XaPiWzsppeSM-693" target="9GpVhyX3XaPiWzsppeSM-612">
          <mxGeometry relative="1" as="geometry" />
        </mxCell>
        <mxCell id="9GpVhyX3XaPiWzsppeSM-698" style="edgeStyle=none;rounded=0;orthogonalLoop=1;jettySize=auto;html=1;endArrow=none;endFill=0;strokeColor=#2F5B7C;strokeWidth=5;" edge="1" parent="1" source="9GpVhyX3XaPiWzsppeSM-693" target="9GpVhyX3XaPiWzsppeSM-481">
          <mxGeometry relative="1" as="geometry" />
        </mxCell>
        <mxCell id="9GpVhyX3XaPiWzsppeSM-699" style="edgeStyle=none;rounded=0;orthogonalLoop=1;jettySize=auto;html=1;endArrow=none;endFill=0;strokeColor=#2F5B7C;strokeWidth=5;" edge="1" parent="1" source="9GpVhyX3XaPiWzsppeSM-693" target="9GpVhyX3XaPiWzsppeSM-667">
          <mxGeometry relative="1" as="geometry" />
        </mxCell>
        <mxCell id="9GpVhyX3XaPiWzsppeSM-693" value="国军标5000A" style="ellipse;whiteSpace=wrap;html=1;shadow=0;fontFamily=Helvetica;fontSize=35;fontColor=#2F5B7C;align=center;strokeColor=#2F5B7C;strokeWidth=6;fillColor=#FFFFFF;fontStyle=1;gradientColor=none;" vertex="1" parent="1">
          <mxGeometry x="3580" y="5502" width="378" height="394" as="geometry" />
        </mxCell>
        <mxCell id="9GpVhyX3XaPiWzsppeSM-702" value="软件设计" style="strokeColor=#BAC8D3;fillColor=#5d7f99;fontSize=19;strokeWidth=2;fontFamily=Helvetica;html=1;labelBackgroundColor=none;fontColor=#FFFFFF;" vertex="1" parent="1">
          <mxGeometry x="30.671272539928168" y="7800" width="646.6666666666666" height="40" as="geometry" />
        </mxCell>
        <mxCell id="9GpVhyX3XaPiWzsppeSM-704" value="编码实现和单元测试" style="strokeColor=#BAC8D3;fillColor=#5d7f99;fontSize=19;strokeWidth=2;fontFamily=Helvetica;html=1;labelBackgroundColor=none;fontColor=#FFFFFF;" vertex="1" parent="1">
          <mxGeometry x="677.3312725399282" y="7800" width="646.6666666666666" height="40" as="geometry" />
        </mxCell>
        <mxCell id="9GpVhyX3XaPiWzsppeSM-705" value="软件配置项测试" style="strokeColor=#BAC8D3;fillColor=#5d7f99;fontSize=19;strokeWidth=2;fontFamily=Helvetica;html=1;labelBackgroundColor=none;fontColor=#FFFFFF;" vertex="1" parent="1">
          <mxGeometry x="1323.5012725399283" y="7800" width="646.6666666666666" height="40" as="geometry" />
        </mxCell>
        <mxCell id="9GpVhyX3XaPiWzsppeSM-706" value="软件验收" style="strokeColor=#BAC8D3;fillColor=#5d7f99;fontSize=19;strokeWidth=2;fontFamily=Helvetica;html=1;labelBackgroundColor=none;fontColor=#FFFFFF;" vertex="1" parent="1">
          <mxGeometry x="1970.1712725399284" y="7800" width="646.6666666666666" height="40" as="geometry" />
        </mxCell>
        <mxCell id="9GpVhyX3XaPiWzsppeSM-707" value="软件维护" style="strokeColor=#BAC8D3;fillColor=#5d7f99;fontSize=19;strokeWidth=2;fontFamily=Helvetica;html=1;labelBackgroundColor=none;fontColor=#FFFFFF;" vertex="1" parent="1">
          <mxGeometry x="2616.8412725399285" y="7800" width="646.6666666666666" height="40" as="geometry" />
        </mxCell>
        <mxCell id="9GpVhyX3XaPiWzsppeSM-714" value="" style="strokeColor=#FFFFFF;fillColor=#BAC8D3;fontSize=18;strokeWidth=2;fontFamily=Helvetica;html=1;opacity=60;" vertex="1" parent="1">
          <mxGeometry x="-1263.33" y="7840" width="646.67" height="170" as="geometry" />
        </mxCell>
        <mxCell id="9GpVhyX3XaPiWzsppeSM-715" value="" style="strokeColor=#FFFFFF;fillColor=#BAC8D3;fontSize=18;strokeWidth=2;fontFamily=Helvetica;html=1;opacity=90;" vertex="1" parent="1">
          <mxGeometry x="-1263.33" y="8010" width="646.67" height="170" as="geometry" />
        </mxCell>
        <mxCell id="9GpVhyX3XaPiWzsppeSM-716" value="" style="strokeColor=#FFFFFF;fillColor=#BAC8D3;fontSize=18;strokeWidth=2;fontFamily=Helvetica;html=1;opacity=60;" vertex="1" parent="1">
          <mxGeometry x="-1263.33" y="8180" width="646.67" height="170" as="geometry" />
        </mxCell>
        <mxCell id="9GpVhyX3XaPiWzsppeSM-710" value="" style="strokeColor=#FFFFFF;fillColor=#BAC8D3;fontSize=18;strokeWidth=2;fontFamily=Helvetica;html=1;opacity=90;" vertex="1" parent="1">
          <mxGeometry x="-1910" y="8350" width="646.67" height="170" as="geometry" />
        </mxCell>
        <mxCell id="9GpVhyX3XaPiWzsppeSM-717" value="" style="strokeColor=#FFFFFF;fillColor=#BAC8D3;fontSize=18;strokeWidth=2;fontFamily=Helvetica;html=1;opacity=90;" vertex="1" parent="1">
          <mxGeometry x="-1263.33" y="8350" width="646.67" height="170" as="geometry" />
        </mxCell>
        <mxCell id="9GpVhyX3XaPiWzsppeSM-712" value="" style="strokeColor=#FFFFFF;fillColor=#BAC8D3;fontSize=18;strokeWidth=2;fontFamily=Helvetica;html=1;opacity=60;" vertex="1" parent="1">
          <mxGeometry x="-1910" y="8520" width="646.67" height="170" as="geometry" />
        </mxCell>
        <mxCell id="9GpVhyX3XaPiWzsppeSM-718" value="" style="strokeColor=#FFFFFF;fillColor=#BAC8D3;fontSize=18;strokeWidth=2;fontFamily=Helvetica;html=1;opacity=60;" vertex="1" parent="1">
          <mxGeometry x="-1263.33" y="8520" width="646.67" height="170" as="geometry" />
        </mxCell>
        <mxCell id="9GpVhyX3XaPiWzsppeSM-722" value="" style="strokeColor=#FFFFFF;fillColor=#BAC8D3;fontSize=18;strokeWidth=2;fontFamily=Helvetica;html=1;opacity=90;" vertex="1" parent="1">
          <mxGeometry x="-1910" y="8690" width="646.67" height="170" as="geometry" />
        </mxCell>
        <mxCell id="9GpVhyX3XaPiWzsppeSM-724" value="" style="strokeColor=#FFFFFF;fillColor=#BAC8D3;fontSize=18;strokeWidth=2;fontFamily=Helvetica;html=1;opacity=90;" vertex="1" parent="1">
          <mxGeometry x="-1263.33" y="8690" width="646.67" height="170" as="geometry" />
        </mxCell>
        <mxCell id="9GpVhyX3XaPiWzsppeSM-726" value="" style="strokeColor=#FFFFFF;fillColor=#BAC8D3;fontSize=18;strokeWidth=2;fontFamily=Helvetica;html=1;opacity=60;" vertex="1" parent="1">
          <mxGeometry x="-1910" y="8860" width="646.67" height="170" as="geometry" />
        </mxCell>
        <mxCell id="9GpVhyX3XaPiWzsppeSM-728" value="" style="strokeColor=#FFFFFF;fillColor=#BAC8D3;fontSize=18;strokeWidth=2;fontFamily=Helvetica;html=1;opacity=60;" vertex="1" parent="1">
          <mxGeometry x="-1263.33" y="8860" width="646.67" height="170" as="geometry" />
        </mxCell>
        <mxCell id="9GpVhyX3XaPiWzsppeSM-730" value="" style="strokeColor=#FFFFFF;fillColor=#BAC8D3;fontSize=18;strokeWidth=2;fontFamily=Helvetica;html=1;opacity=90;" vertex="1" parent="1">
          <mxGeometry x="-1910" y="9030" width="646.67" height="170" as="geometry" />
        </mxCell>
        <mxCell id="9GpVhyX3XaPiWzsppeSM-732" value="" style="strokeColor=#FFFFFF;fillColor=#BAC8D3;fontSize=18;strokeWidth=2;fontFamily=Helvetica;html=1;opacity=90;" vertex="1" parent="1">
          <mxGeometry x="-1263.33" y="9030" width="646.67" height="170" as="geometry" />
        </mxCell>
        <mxCell id="9GpVhyX3XaPiWzsppeSM-734" value="" style="strokeColor=#FFFFFF;fillColor=#BAC8D3;fontSize=18;strokeWidth=2;fontFamily=Helvetica;html=1;opacity=60;" vertex="1" parent="1">
          <mxGeometry x="-1910" y="9200" width="646.67" height="170" as="geometry" />
        </mxCell>
        <mxCell id="9GpVhyX3XaPiWzsppeSM-736" value="" style="strokeColor=#FFFFFF;fillColor=#BAC8D3;fontSize=18;strokeWidth=2;fontFamily=Helvetica;html=1;opacity=60;" vertex="1" parent="1">
          <mxGeometry x="-1263.33" y="9200" width="646.67" height="170" as="geometry" />
        </mxCell>
        <mxCell id="9GpVhyX3XaPiWzsppeSM-738" value="" style="strokeColor=#FFFFFF;fillColor=#BAC8D3;fontSize=18;strokeWidth=2;fontFamily=Helvetica;html=1;opacity=90;" vertex="1" parent="1">
          <mxGeometry x="-1910" y="9370" width="646.67" height="170" as="geometry" />
        </mxCell>
        <mxCell id="9GpVhyX3XaPiWzsppeSM-740" value="" style="strokeColor=#FFFFFF;fillColor=#BAC8D3;fontSize=18;strokeWidth=2;fontFamily=Helvetica;html=1;opacity=90;" vertex="1" parent="1">
          <mxGeometry x="-1263.33" y="9370" width="646.67" height="170" as="geometry" />
        </mxCell>
        <mxCell id="9GpVhyX3XaPiWzsppeSM-742" value="" style="strokeColor=#FFFFFF;fillColor=#BAC8D3;fontSize=18;strokeWidth=2;fontFamily=Helvetica;html=1;opacity=60;" vertex="1" parent="1">
          <mxGeometry x="-1910" y="9540" width="646.67" height="170" as="geometry" />
        </mxCell>
        <mxCell id="9GpVhyX3XaPiWzsppeSM-744" value="" style="strokeColor=#FFFFFF;fillColor=#BAC8D3;fontSize=18;strokeWidth=2;fontFamily=Helvetica;html=1;opacity=60;" vertex="1" parent="1">
          <mxGeometry x="-1263.33" y="9540" width="646.67" height="170" as="geometry" />
        </mxCell>
        <mxCell id="9GpVhyX3XaPiWzsppeSM-750" value="人员和进度安排等" style="rounded=1;fillColor=#23445D;strokeColor=none;strokeWidth=2;fontFamily=Helvetica;html=1;gradientColor=none;fontColor=#FFFFFF;" vertex="1" parent="1">
          <mxGeometry x="-1229.9954421768707" y="8540" width="127" height="50" as="geometry" />
        </mxCell>
        <mxCell id="9GpVhyX3XaPiWzsppeSM-754" value="确定技术解决途径" style="rounded=1;fillColor=#23445D;strokeColor=none;strokeWidth=2;fontFamily=Helvetica;html=1;gradientColor=none;fontColor=#FFFFFF;" vertex="1" parent="1">
          <mxGeometry x="-1229.9954421768707" y="8710" width="127" height="50" as="geometry" />
        </mxCell>
        <mxCell id="9GpVhyX3XaPiWzsppeSM-755" value="产品结构分解" style="rounded=1;fillColor=#23445D;strokeColor=none;strokeWidth=2;fontFamily=Helvetica;html=1;gradientColor=none;fontColor=#FFFFFF;" vertex="1" parent="1">
          <mxGeometry x="-1079.9954421768707" y="8710" width="127" height="50" as="geometry" />
        </mxCell>
        <mxCell id="9GpVhyX3XaPiWzsppeSM-756" value="估计规模和复杂度" style="rounded=1;fillColor=#23445D;strokeColor=none;strokeWidth=2;fontFamily=Helvetica;html=1;gradientColor=none;fontColor=#FFFFFF;" vertex="1" parent="1">
          <mxGeometry x="-929.9954421768707" y="8710" width="127" height="50" as="geometry" />
        </mxCell>
        <mxCell id="9GpVhyX3XaPiWzsppeSM-757" value="定义生存周期阶段" style="rounded=1;fillColor=#23445D;strokeColor=none;strokeWidth=2;fontFamily=Helvetica;html=1;gradientColor=none;fontColor=#FFFFFF;" vertex="1" parent="1">
          <mxGeometry x="-779.9954421768707" y="8710" width="127" height="50" as="geometry" />
        </mxCell>
        <mxCell id="9GpVhyX3XaPiWzsppeSM-758" value="建立顶层WBS" style="rounded=1;fillColor=#23445D;strokeColor=none;strokeWidth=2;fontFamily=Helvetica;html=1;gradientColor=none;fontColor=#FFFFFF;" vertex="1" parent="1">
          <mxGeometry x="-1229.9954421768707" y="8790" width="127" height="50" as="geometry" />
        </mxCell>
        <mxCell id="9GpVhyX3XaPiWzsppeSM-759" value="估计工作量" style="rounded=1;fillColor=#23445D;strokeColor=none;strokeWidth=2;fontFamily=Helvetica;html=1;gradientColor=none;fontColor=#FFFFFF;" vertex="1" parent="1">
          <mxGeometry x="-1079.9954421768707" y="8790" width="127" height="50" as="geometry" />
        </mxCell>
        <mxCell id="9GpVhyX3XaPiWzsppeSM-760" value="软件研制任务书" style="shape=document;whiteSpace=wrap;html=1;boundedLbl=1;fontSize=10;align=center;" vertex="1" parent="1">
          <mxGeometry x="-1690" y="7850" width="120" height="70" as="geometry" />
        </mxCell>
        <mxCell id="9GpVhyX3XaPiWzsppeSM-762" value="项目初始估计表" style="shape=document;whiteSpace=wrap;html=1;boundedLbl=1;fontSize=10;align=center;" vertex="1" parent="1">
          <mxGeometry x="-926.5" y="8780" width="120" height="70" as="geometry" />
        </mxCell>
        <mxCell id="9GpVhyX3XaPiWzsppeSM-763" value="项目策划工作计划" style="shape=document;whiteSpace=wrap;html=1;boundedLbl=1;fontSize=10;align=center;" vertex="1" parent="1">
          <mxGeometry x="-1073" y="8540" width="120" height="70" as="geometry" />
        </mxCell>
        <mxCell id="9GpVhyX3XaPiWzsppeSM-764" value="制定进度计划表" style="rounded=1;fillColor=#23445D;strokeColor=none;strokeWidth=2;fontFamily=Helvetica;html=1;gradientColor=none;fontColor=#FFFFFF;" vertex="1" parent="1">
          <mxGeometry x="-1229.9954421768707" y="8900" width="127" height="50" as="geometry" />
        </mxCell>
        <mxCell id="9GpVhyX3XaPiWzsppeSM-765" value="标识并分析项目风险" style="rounded=1;fillColor=#23445D;strokeColor=none;strokeWidth=2;fontFamily=Helvetica;html=1;gradientColor=none;fontColor=#FFFFFF;" vertex="1" parent="1">
          <mxGeometry x="-1079.9954421768707" y="8900" width="127" height="50" as="geometry" />
        </mxCell>
        <mxCell id="9GpVhyX3XaPiWzsppeSM-767" style="edgeStyle=orthogonalEdgeStyle;rounded=1;orthogonalLoop=1;jettySize=auto;html=1;endArrow=none;endFill=0;strokeColor=#2F5B7C;strokeWidth=5;fontSize=10;fontColor=#000000;" edge="1" parent="1" source="9GpVhyX3XaPiWzsppeSM-760" target="9GpVhyX3XaPiWzsppeSM-750">
          <mxGeometry relative="1" as="geometry">
            <Array as="points">
              <mxPoint x="-1630" y="8565" />
            </Array>
          </mxGeometry>
        </mxCell>
      </root>
    </mxGraphModel>
  </diagram>
</mxfile>
